<svg width="27" height="28" viewBox="0 0 27 28" fill="none" xmlns="http://www.w3.org/2000/svg">
<rect y="0.5" width="27" height="27" rx="12" fill="#3F8CFF"/>
<mask id="mask0_672_2179" style="mask-type:luminance" maskUnits="userSpaceOnUse" x="0" y="0" width="27" height="28">
<rect y="0.5" width="27" height="27" rx="12" fill="white"/>
</mask>
<g mask="url(#mask0_672_2179)">
</g>
<path fill-rule="evenodd" clip-rule="evenodd" d="M9.78754 14C8.85941 14 8.1001 13.2407 8.1001 12.3126C8.1001 11.3843 8.85941 10.625 9.78754 10.625C10.7157 10.625 11.4751 11.3843 11.4751 12.3126C11.4751 13.2407 10.7157 14 9.78754 14Z" fill="#F4F9FD"/>
<path fill-rule="evenodd" clip-rule="evenodd" d="M22.95 10.1614C22.95 7.44639 20.6718 5.22498 17.8875 5.22498H17.8873C15.1031 5.22498 12.825 7.44639 12.825 10.1614V17.375C12.825 17.375 22.949 16.2758 22.95 10.1621C22.95 10.1619 22.95 10.1617 22.95 10.1614Z" fill="#F4F9FD"/>
<path fill-rule="evenodd" clip-rule="evenodd" d="M7.76249 20.8216C7.22585 20.8216 6.78691 20.4 6.78691 19.8848C6.78691 19.3694 7.22585 18.9479 7.76249 18.9479C8.29901 18.9479 8.73795 19.3694 8.73795 19.8848C8.73795 20.4 8.29901 20.8216 7.76249 20.8216ZM4.05005 19.884C4.05005 19.8842 4.05005 19.8846 4.05005 19.8848C4.05005 21.8456 5.72061 23.45 7.76255 23.45C9.80436 23.45 11.475 21.8456 11.475 19.8848V14.675C11.475 14.675 4.05102 15.4689 4.05005 19.884Z" fill="#F4F9FD"/>
</svg>
