<?xml version="1.0" encoding="UTF-8"?>
<!DOCTYPE svg PUBLIC "-//W3C//DTD SVG 1.1//EN" "http://www.w3.org/Graphics/SVG/1.1/DTD/svg11.dtd">
<!-- Creator: CorelDRAW -->
<svg xmlns="http://www.w3.org/2000/svg" xml:space="preserve" width="93.5177mm" height="24.8086mm" version="1.1" style="shape-rendering:geometricPrecision; text-rendering:geometricPrecision; image-rendering:optimizeQuality; fill-rule:evenodd; clip-rule:evenodd"
viewBox="0 0 9339.42 2477.58"
 xmlns:xlink="http://www.w3.org/1999/xlink"
 xmlns:xodm="http://www.corel.com/coreldraw/odm/2003">
 <defs>
  <style type="text/css">
   <![CDATA[
    .fil3 {fill:#C5C5C6;fill-rule:nonzero}
    .fil5 {fill:#9C9D9E;fill-rule:nonzero}
    .fil1 {fill:#F1C919;fill-rule:nonzero}
    .fil2 {fill:#C6007C;fill-rule:nonzero}
    .fil0 {fill:#0B0B09;fill-rule:nonzero}
    .fil4 {fill:#009AE0;fill-rule:nonzero}
   ]]>
  </style>
 </defs>
 <g id="Слой_x0020_1">
  <metadata id="CorelCorpID_0Corel-Layer"/>
  <path class="fil0" d="M4607.71 1561.23c23.77,0.02 38.36,-7.94 43.81,-23.85 2.03,-5.5 3.05,-22.44 2.99,-50.66 -0.03,-26.86 -15.68,-40.25 -46.91,-40.21l-287.61 0.37c-31.25,0.04 -46.87,13.47 -46.84,40.32 0.02,28.25 1.08,45.19 3.14,50.65 5.49,15.92 20.09,23.83 43.85,23.79 95.86,-0.16 191.72,-0.27 287.57,-0.41zm4726.96 -343.09l-248.28 604.83c-14.47,35.48 -38.08,53.36 -71.14,53.39 -31.41,0.03 -53.88,-16.58 -67.64,-49.83l-199.45 -487.75 -204.95 489.32c-11.98,29.02 -34.41,43.45 -67.24,43.47 -34.79,0.04 -58.45,-15.36 -70.83,-46.22l-248.45 -606.2c-3.03,-7.07 -4.64,-13.75 -4.63,-20.05 -0.02,-14.8 6.48,-26.81 19.55,-36.32 11.83,-8.76 25.79,-13.24 41.86,-13.24 24.89,-0.02 41.34,9.9 49.6,29.78l212.73 517.57 201.39 -497.64c14.12,-35.7 37.24,-53.59 69.21,-53.62 11.8,-0.01 24.35,5.07 38.16,15.18 13.6,10.15 22.93,21.27 28.09,33.48l205.44 502.34 208.47 -517.51c7.89,-19.9 25.92,-29.88 53.84,-29.9 15.87,-0.01 29.29,4.05 40.26,11.95 12.34,8.71 18.75,20.27 18.75,34.47 0,7.1 -1.58,14.61 -4.75,22.51zm-1210.04 455.08c0.12,137.56 -114.43,206.46 -343.79,206.67 -18.05,0.01 -40.99,-0.38 -69.07,-1.18 -28.07,-0.78 -46.63,-1.18 -55.63,-1.16 -161.75,0.14 -258.91,-34.66 -291.26,-104.42 -11.51,-24.14 -17.17,-57.22 -17.21,-99.23l-0.39 -473.7c-0.04,-30.86 13.35,-46.27 40.19,-46.29 28.27,-0.04 45.05,0.76 50.15,2.4 16.61,5.44 24.93,20.05 24.95,43.78l0.4 464.81c0.03,46.05 24.46,76.67 73.02,92.06 25.96,7.87 66.4,11.91 121.65,11.86l158.25 -0.14c55.6,-0.04 96.02,-3.96 121.65,-11.48 48.55,-15.05 72.86,-45.7 72.82,-92.17l-0.41 -465.38c-0.01,-23.75 8.11,-38.38 24.34,-43.87 5.48,-1.64 22.08,-2.44 49.61,-2.46 26.86,-0.03 40.29,15.36 40.3,46.41l0.42 473.5zm-1400.16 96.4l485.59 -0.42c27.9,-0.03 41.87,18 41.9,54.09 0.01,36.35 -13.93,54.63 -41.8,54.64l-575.82 0.51c-25.43,0.01 -46.46,-5.21 -62.54,-15.97 -21.38,-13.38 -32.17,-32.84 -32.2,-58.2 0.02,-16.66 5.99,-30.83 18.14,-42.82l511.92 -500.62 -485.59 0.44c-27.89,0.01 -41.86,-18.02 -41.89,-54.13 -0.05,-36.31 13.91,-54.58 41.78,-54.6l575.82 -0.5c25.45,-0.03 46.46,5.21 62.52,15.96 21.41,13.38 32.19,32.85 32.2,58.2 0.01,16.64 -5.95,30.81 -18.11,42.8l-511.92 500.62zm-255.78 -344.48c0.05,65.33 -30.1,113.22 -90.46,143.31 -44.13,22.37 -98.88,33.37 -163.99,33.43l-189.52 0.17 384.26 186.93c20.47,9.9 30.57,25.12 30.6,45.79 0.02,28.03 -15.34,42.63 -46.07,43.88 -34.76,1.24 -56.19,-0.17 -64.1,-4.22l-524.33 -256.79 0.2 214.66c0.03,31.25 -13.39,46.88 -40.21,46.91 -28.26,0.01 -45.07,-1 -50.18,-3.03 -16.22,-5.45 -24.39,-20.05 -24.43,-43.78l-0.55 -630.77c-0.01,-30.85 13.4,-46.26 40.43,-46.28l462.48 -0.4c71.36,-0.07 130.34,10.64 176.79,31.89 65.88,31.02 98.94,81.27 98.99,150.86l0.09 87.44zm-114.77 1.34l-0.07 -91.5c-0.03,-48.52 -53.92,-72.6 -161.49,-72.49l-387.59 0.33 0.2 231.89 408.28 -0.35c93.74,-0.08 140.71,-22.66 140.66,-67.88zm-753.45 385.69c1.42,6.09 2.12,11.97 2.14,17.87 0.03,18.68 -5.43,34.08 -16.54,46.27 -10.96,11.98 -24.02,18.07 -39.21,18.07 -21.71,0.03 -39.73,-11.92 -53.88,-35.61l-102.06 -169.96 -484.19 0.43 -101.71 170.1c-11.12,18.67 -22.95,27.99 -35.83,28.01 -7.25,0.02 -15.53,-2.4 -24.75,-7.26 -21.04,-10.55 -31.62,-25.16 -31.64,-43.2 0,-4.06 1.06,-8.13 3.16,-11.98l362.51 -638.16c13.76,-24.16 37.24,-37.13 70.43,-39.22 27.22,-1.63 47.16,7.07 60.07,26.13 1.24,3.25 3.35,7.51 6.17,12.97l385.33 625.54zm-277.27 -232.65l-174.36 -295.26 -174.91 295.57 349.27 -0.31zm-1305.83 220.4c0.06,54.98 -20.9,82.6 -63.12,82.64 -4.06,0 -8.47,-0.42 -12.88,-1.23 -13.79,-1.6 -31.41,-12.73 -52.84,-33.62l-536.92 -523.59 0.43 507.21c0.04,23.73 -7.9,38.35 -23.78,43.82 -5.49,2.06 -22.42,3.09 -50.67,3.11 -26.87,0.03 -40.28,-15.59 -40.32,-46.84l-0.51 -603.76c-0.02,-21.08 1.22,-34.68 3.65,-41 3.36,-9.93 12.01,-19.67 25.77,-29.22 8.66,-5.49 18.38,-8.33 29.48,-8.34 25.29,-0.04 50.7,12.51 76.7,37.85l529.64 517.3 -0.44 -503.94c0,-23.95 8.12,-38.58 24.36,-44.04 5.46,-1.67 22.25,-2.48 50.17,-2.5 27.14,-0.02 40.76,15.37 40.79,46.43l0.5 599.72zm-886.86 -565.66l-310.85 341.94 0.23 255.59c0.01,23.74 -7.95,38.36 -23.81,43.84 -5.12,2.04 -21.72,3.08 -49.61,3.09 -27.19,0.03 -40.83,-15.37 -40.85,-46.2l-0.21 -256.23 -311.09 -341.4c-11.81,-13.58 -17.68,-26.94 -17.69,-40.56 -0.02,-26.17 15.33,-39.19 46.06,-39.2 34.4,-0.04 55.63,4.19 63.58,12.93l275.72 303.47 276.81 -303.95c7.92,-8.75 29.1,-13.03 63.56,-13.05 31.09,-0.02 46.63,12.74 46.66,38.52 0,14 -6.14,27.58 -18.51,41.21zm-783.29 -18.41c0.04,31.23 -13.37,46.9 -40.21,46.91l-255.17 0.22 0.49 569.47c0.02,31.27 -13.19,46.91 -39.69,46.91 -28.24,0.04 -45.18,-0.97 -50.69,-3 -15.87,-5.46 -23.86,-20.07 -23.88,-43.79l-0.47 -569.49 -253.05 0.21c-27.2,0.03 -40.82,-15.59 -40.84,-46.81 -0.03,-21.11 2.09,-35.71 6.15,-44.03 5.8,-11.16 17.45,-16.67 34.6,-16.68l622.45 -0.54c16.96,-0.01 28.23,5.47 34.08,16.61 4.25,8.32 6.2,22.91 6.21,44.01zm-654.51 616.92c0,31.26 -13.37,46.89 -40.39,46.91l-361.11 0.3c-63.05,0.06 -110.2,-2.74 -141.13,-8.17 -56.7,-9.93 -99.41,-30.14 -128.6,-60.78 -29.14,-30.79 -43.84,-71.17 -43.9,-121.47l-0.42 -486.94c-0.02,-30.83 13.4,-46.26 40.22,-46.28 28.26,-0.04 45.03,0.75 50.17,2.4 16.24,5.45 24.39,20.05 24.4,43.8l0.43 486.91c0.05,38.77 26.73,63.68 80.22,74.8 21.73,4.64 60.94,7.05 117.43,7.01l362.19 -0.33c16.93,0 28.23,5.85 34.28,17.8 4.03,8.36 6.18,22.96 6.2,44.04zm-805.02 -19.58c1.43,6.07 2.13,11.95 2.15,17.85 0,18.67 -5.45,34.07 -16.56,46.26 -10.97,12 -24,18.08 -39.2,18.1 -21.73,0.02 -39.72,-11.94 -53.9,-35.64l-102.02 -169.94 -484.21 0.42 -101.75 170.12c-11.09,18.65 -22.91,27.97 -35.81,28.01 -7.23,0 -15.53,-2.43 -24.73,-7.28 -21.04,-10.55 -31.62,-25.16 -31.66,-43.21 0.02,-4.05 1.05,-8.11 3.2,-11.96l362.49 -638.17c13.75,-24.14 37.24,-37.13 70.43,-39.22 27.16,-1.62 47.14,7.07 60.03,26.11 1.28,3.27 3.38,7.53 6.2,13.01l385.33 625.54zm-277.28 -232.68l-174.34 -295.25 -174.94 295.56 349.28 -0.31z"/>
  <polygon class="fil1" points="5230.71,711.77 5677.96,0 6125.21,711.77 "/>
  <polygon class="fil0" points="6508.58,0.01 6955.83,711.78 7403.08,0.01 "/>
  <polygon class="fil2" points="2760.9,711.77 3208.15,0 3655.39,711.77 "/>
  <polygon class="fil3" points="4011.35,0.01 4458.6,711.78 4905.85,0.01 "/>
  <polygon class="fil4" points="1510.45,0.01 1957.69,711.78 2404.94,0.01 "/>
  <path class="fil5" d="M739.5 2429.17c0,0.87 -0.24,1.62 -0.72,2.24 -0.46,0.62 -1.32,1.12 -2.58,1.53 -1.23,0.38 -2.9,0.71 -4.97,0.92 -2.08,0.2 -4.72,0.29 -8,0.29 -3.47,0 -6.23,-0.09 -8.31,-0.29 -2.12,-0.21 -3.83,-0.54 -5.1,-1 -1.3,-0.45 -2.25,-1.03 -2.9,-1.82 -0.61,-0.75 -1.1,-1.7 -1.43,-2.86l-12.42 -34.96c-1.77,-5.12 -3.6,-9.39 -5.51,-12.82 -1.91,-3.44 -4.03,-6.25 -6.36,-8.4 -2.28,-2.11 -4.93,-3.65 -7.87,-4.55 -2.98,-0.87 -6.28,-1.32 -9.95,-1.32l-7.05 0 0 62.93c0,0.87 -0.25,1.62 -0.74,2.24 -0.45,0.62 -1.3,1.12 -2.49,1.57 -1.19,0.46 -2.77,0.79 -4.77,1 -1.96,0.2 -4.52,0.29 -7.58,0.29 -3.02,0 -5.54,-0.09 -7.58,-0.29 -2.04,-0.21 -3.64,-0.54 -4.81,-1 -1.18,-0.45 -2.04,-0.95 -2.57,-1.57 -0.54,-0.62 -0.78,-1.37 -0.78,-2.24l0 -148.32c0,-0.87 0.24,-1.62 0.78,-2.24 0.53,-0.62 1.39,-1.12 2.57,-1.53 1.18,-0.37 2.78,-0.7 4.81,-0.91 2.04,-0.21 4.56,-0.29 7.58,-0.29 3.06,0 5.62,0.08 7.58,0.29 2.01,0.21 3.59,0.5 4.77,0.91 1.19,0.41 2.04,0.91 2.49,1.53 0.49,0.58 0.74,1.33 0.74,2.24l0 58.83 7.05 0c3.59,0 6.76,-0.5 9.46,-1.45 2.73,-0.99 5.18,-2.53 7.39,-4.59 2.19,-2.11 4.18,-4.84 5.99,-8.19 1.79,-3.36 3.51,-7.49 5.21,-12.41l10.4 -31.24c0.41,-1.12 0.86,-2.07 1.43,-2.81 0.57,-0.79 1.47,-1.41 2.7,-1.83 1.22,-0.45 2.86,-0.78 4.89,-0.99 2,-0.21 4.72,-0.29 8.15,-0.29 3.1,0 5.66,0.08 7.66,0.29 2.04,0.21 3.64,0.5 4.77,0.87 1.19,0.37 1.96,0.83 2.33,1.45 0.4,0.62 0.61,1.37 0.61,2.24 0,1.03 -0.16,2.36 -0.53,3.88 -0.37,1.53 -0.98,3.56 -1.87,6.04l-10.36 27.84c-1.92,5.17 -3.84,9.6 -5.76,13.19 -1.91,3.65 -3.9,6.75 -6.03,9.27 -2.08,2.57 -4.32,4.63 -6.68,6.25 -2.33,1.62 -4.93,2.94 -7.79,4.01l0 0.08c3.19,1.41 6.07,2.94 8.65,4.67 2.61,1.78 5.05,3.97 7.34,6.62 2.24,2.69 4.43,5.96 6.51,9.85 2.05,3.89 4.16,8.65 6.33,14.32l12.67 32.56c1.3,3.31 2.04,5.58 2.29,6.87 0.25,1.24 0.36,2.28 0.36,3.1zm257.2 -105c0,8.85 -1.34,16.63 -4.07,23.42 -2.69,6.82 -6.65,12.53 -11.87,17.17 -5.17,4.67 -11.53,8.19 -19.07,10.64 -7.55,2.44 -16.44,3.64 -26.67,3.64l-12.92 0 0 50.02c0,0.83 -0.24,1.53 -0.78,2.2 -0.53,0.62 -1.39,1.16 -2.57,1.57 -1.18,0.41 -2.78,0.7 -4.77,0.95 -1.95,0.25 -4.51,0.38 -7.58,0.38 -3.02,0 -5.55,-0.13 -7.59,-0.38 -2.04,-0.25 -3.62,-0.58 -4.8,-0.95 -1.19,-0.41 -2.05,-0.95 -2.49,-1.57 -0.49,-0.67 -0.74,-1.41 -0.74,-2.2l0 -141.12c0,-3.8 0.99,-6.66 2.94,-8.57 1.96,-1.9 4.52,-2.86 7.71,-2.86l36.45 0c3.68,0 7.17,0.13 10.49,0.42 3.3,0.29 7.25,0.91 11.9,1.82 4.6,0.95 9.29,2.65 14.03,5.17 4.72,2.49 8.81,5.67 12.14,9.52 3.35,3.84 5.91,8.32 7.66,13.48 1.76,5.13 2.62,10.89 2.62,17.26zm-32.79 2.32c0,-5.5 -0.98,-10.06 -2.9,-13.61 -1.91,-3.56 -4.28,-6.2 -7.1,-7.9 -2.8,-1.7 -5.74,-2.78 -8.8,-3.23 -3.1,-0.46 -6.27,-0.67 -9.59,-0.67l-13.45 0 0 53.37 14.19 0c5.05,0 9.26,-0.7 12.68,-2.07 3.39,-1.36 6.2,-3.31 8.35,-5.79 2.17,-2.44 3.8,-5.41 4.94,-8.85 1.1,-3.44 1.67,-7.2 1.67,-11.26zm276.56 94.38c0,2.36 -0.09,4.3 -0.28,5.91 -0.21,1.58 -0.5,2.86 -0.9,3.8 -0.41,1 -0.91,1.7 -1.52,2.16 -0.57,0.45 -1.26,0.66 -1.96,0.66l-77.55 0c-2.61,0 -4.81,-0.79 -6.6,-2.36 -1.81,-1.58 -2.7,-4.13 -2.7,-7.7l0 -136.78c0,-3.56 0.89,-6.12 2.7,-7.69 1.79,-1.58 3.99,-2.37 6.6,-2.37l77.19 0c0.7,0 1.35,0.21 1.92,0.63 0.53,0.41 1.01,1.11 1.43,2.11 0.36,1.03 0.69,2.32 0.89,3.88 0.21,1.62 0.29,3.61 0.29,6.04 0,2.28 -0.08,4.18 -0.29,5.79 -0.2,1.58 -0.49,2.86 -0.89,3.8 -0.42,1 -0.9,1.7 -1.43,2.16 -0.57,0.45 -1.22,0.66 -1.92,0.66l-55.17 0 0 38.23 46.48 0c0.73,0 1.39,0.21 1.97,0.66 0.61,0.46 1.09,1.12 1.5,2.07 0.41,0.91 0.69,2.16 0.9,3.77 0.21,1.58 0.29,3.48 0.29,5.71 0,2.36 -0.08,4.3 -0.29,5.83 -0.21,1.53 -0.49,2.78 -0.9,3.69 -0.41,0.95 -0.89,1.61 -1.5,1.99 -0.58,0.41 -1.24,0.62 -1.97,0.62l-46.48 0 0 44.18 55.53 0c0.74,0 1.39,0.21 1.96,0.67 0.61,0.45 1.11,1.16 1.52,2.15 0.4,0.95 0.69,2.24 0.9,3.8 0.19,1.62 0.28,3.57 0.28,5.92zm282.48 0.66c0.94,2.9 1.55,5.21 1.8,6.91 0.24,1.7 -0.08,2.98 -0.94,3.84 -0.91,0.83 -2.45,1.37 -4.69,1.58 -2.21,0.2 -5.29,0.29 -9.18,0.29 -4.07,0 -7.25,-0.05 -9.5,-0.17 -2.28,-0.12 -3.99,-0.37 -5.21,-0.75 -1.19,-0.37 -2,-0.87 -2.49,-1.53 -0.5,-0.62 -0.9,-1.49 -1.19,-2.53l-10.16 -31.52 -58.3 0 -9.75 30.65c-0.32,1.16 -0.74,2.12 -1.27,2.86 -0.48,0.79 -1.34,1.37 -2.48,1.83 -1.15,0.45 -2.78,0.74 -4.9,0.91 -2.12,0.16 -4.89,0.25 -8.32,0.25 -3.67,0 -6.52,-0.13 -8.6,-0.38 -2.08,-0.25 -3.51,-0.83 -4.28,-1.74 -0.82,-0.95 -1.1,-2.28 -0.86,-3.96 0.25,-1.7 0.86,-3.93 1.8,-6.79l47.63 -139.22c0.45,-1.37 1.02,-2.49 1.67,-3.32 0.61,-0.87 1.64,-1.49 3.03,-1.95 1.43,-0.45 3.34,-0.74 5.82,-0.87 2.46,-0.12 5.71,-0.16 9.79,-0.16 4.69,0 8.45,0.04 11.22,0.16 2.82,0.13 4.97,0.42 6.53,0.87 1.55,0.46 2.65,1.12 3.34,1.99 0.66,0.91 1.27,2.12 1.71,3.65l47.8 139.1zm-70.95 -115.19l-0.12 0 -21.54 66.74 43.39 0 -21.73 -66.74zm306.64 -16.75c0,2.36 -0.08,4.34 -0.29,6.03 -0.2,1.66 -0.49,2.99 -0.89,3.97 -0.41,1.04 -0.9,1.78 -1.51,2.24 -0.57,0.5 -1.27,0.74 -1.96,0.74l-38.66 0 0 126.48c0,0.79 -0.24,1.53 -0.77,2.2 -0.54,0.62 -1.39,1.16 -2.58,1.57 -1.18,0.37 -2.81,0.7 -4.84,0.95 -2.04,0.25 -4.57,0.38 -7.59,0.38 -3.02,0 -5.54,-0.13 -7.58,-0.38 -2.05,-0.25 -3.68,-0.58 -4.85,-0.95 -1.19,-0.41 -2.05,-0.95 -2.57,-1.57 -0.53,-0.67 -0.78,-1.41 -0.78,-2.2l0 -126.48 -38.66 0c-0.77,0 -1.47,-0.24 -2.04,-0.74 -0.54,-0.46 -1.02,-1.2 -1.43,-2.24 -0.37,-0.99 -0.69,-2.32 -0.9,-3.97 -0.21,-1.69 -0.28,-3.68 -0.28,-6.03 0,-2.41 0.07,-4.47 0.28,-6.17 0.21,-1.7 0.53,-3.06 0.9,-4.05 0.41,-1.03 0.89,-1.74 1.43,-2.19 0.57,-0.46 1.27,-0.67 2.04,-0.67l108.88 0c0.69,0 1.35,0.21 1.96,0.67 0.61,0.45 1.1,1.16 1.51,2.19 0.4,1 0.69,2.36 0.89,4.05 0.21,1.7 0.29,3.77 0.29,6.17zm272.16 139.72c0,0.79 -0.25,1.49 -0.78,2.11 -0.53,0.62 -1.39,1.12 -2.57,1.53 -1.18,0.38 -2.82,0.71 -4.85,0.92 -2.04,0.2 -4.56,0.29 -7.59,0.29 -3.01,0 -5.54,-0.09 -7.58,-0.29 -2.04,-0.21 -3.63,-0.54 -4.77,-0.92 -1.18,-0.41 -2,-0.91 -2.44,-1.53 -0.49,-0.62 -0.74,-1.32 -0.74,-2.11l0 -82.71c0,-3.15 0.04,-6.24 0.12,-9.27 0.09,-3.06 0.21,-5.75 0.37,-8.07l-0.24 0c-0.65,1.12 -1.39,2.45 -2.29,3.93 -0.9,1.49 -1.84,3.07 -2.82,4.71 -1.02,1.66 -2.08,3.36 -3.18,5.09 -1.15,1.74 -2.25,3.44 -3.35,5.04l-53.7 81.38c-0.65,0.87 -1.31,1.66 -1.96,2.28 -0.69,0.66 -1.55,1.16 -2.66,1.53 -1.06,0.38 -2.36,0.63 -3.91,0.75 -1.55,0.12 -3.59,0.17 -6.03,0.17 -3.1,0 -5.63,-0.09 -7.5,-0.29 -1.92,-0.21 -3.43,-0.54 -4.48,-0.92 -1.11,-0.41 -1.84,-0.95 -2.21,-1.57 -0.41,-0.66 -0.61,-1.45 -0.61,-2.32l0 -148.44c0,-0.79 0.24,-1.5 0.78,-2.12 0.53,-0.62 1.39,-1.12 2.61,-1.53 1.22,-0.37 2.86,-0.7 4.85,-0.91 1.96,-0.21 4.48,-0.29 7.5,-0.29 3.06,0 5.62,0.08 7.58,0.29 2.01,0.21 3.59,0.54 4.77,0.91 1.19,0.41 2.04,0.91 2.49,1.53 0.49,0.62 0.74,1.33 0.74,2.12l0 83.2c0,2.57 -0.04,5.33 -0.13,8.23 -0.08,2.94 -0.2,5.75 -0.37,8.48l0.25 0c1.39,-2.4 3.11,-5.33 5.17,-8.73 2.08,-3.39 4.24,-6.7 6.45,-9.93l53.78 -81.38c0.57,-0.79 1.14,-1.49 1.79,-2.11 0.66,-0.62 1.52,-1.12 2.58,-1.53 1.06,-0.38 2.41,-0.67 3.99,-0.83 1.59,-0.17 3.63,-0.25 6.12,-0.25 3.01,0 5.46,0.08 7.33,0.29 1.88,0.21 3.35,0.54 4.48,0.91 1.11,0.41 1.89,0.91 2.33,1.53 0.45,0.62 0.66,1.37 0.66,2.24l0 148.57zm273.55 -42.99c0,5.59 -0.78,10.64 -2.29,15.19 -1.51,4.5 -3.59,8.52 -6.23,11.99 -2.7,3.48 -5.88,6.46 -9.54,8.98 -3.72,2.53 -7.8,4.55 -12.23,6.21 -4.45,1.61 -9.23,2.81 -14.28,3.56 -5.05,0.79 -10.69,1.16 -16.88,1.16l-41.06 0c-2.62,0 -4.81,-0.79 -6.61,-2.36 -1.8,-1.58 -2.7,-4.13 -2.7,-7.7l0 -136.78c0,-3.56 0.9,-6.12 2.7,-7.69 1.8,-1.58 3.99,-2.37 6.61,-2.37l38.73 0c9.47,0 17.46,0.83 24.02,2.45 6.57,1.61 12.07,4.05 16.56,7.32 4.51,3.27 7.94,7.41 10.32,12.41 2.4,5 3.59,10.88 3.59,17.67 0,3.8 -0.49,7.36 -1.43,10.72 -0.94,3.35 -2.37,6.41 -4.15,9.14 -1.84,2.78 -4.08,5.17 -6.77,7.29 -2.65,2.11 -5.67,3.8 -9.1,5.08 4.36,0.83 8.45,2.24 12.15,4.26 3.72,2.03 6.93,4.63 9.67,7.82 2.77,3.19 4.93,6.95 6.52,11.22 1.59,4.29 2.41,9.1 2.41,14.43zm-40.61 -66.11c0,-3.15 -0.5,-5.95 -1.43,-8.48 -0.95,-2.49 -2.38,-4.59 -4.28,-6.25 -1.92,-1.65 -4.33,-2.9 -7.22,-3.8 -2.9,-0.87 -6.76,-1.32 -11.61,-1.32l-15.83 0 0 40.71 17.49 0c4.53,0 8.16,-0.54 10.85,-1.66 2.7,-1.07 4.94,-2.56 6.73,-4.46 1.8,-1.91 3.11,-4.13 4,-6.66 0.85,-2.57 1.31,-5.21 1.31,-8.07zm8.07 67.27c0,-3.64 -0.61,-6.9 -1.8,-9.8 -1.19,-2.86 -2.94,-5.26 -5.26,-7.2 -2.28,-1.95 -5.21,-3.44 -8.81,-4.51 -3.59,-1.03 -8.24,-1.57 -13.98,-1.57l-18.6 0 0 44.68 22.68 0c4.35,0 8.03,-0.46 11.04,-1.41 2.99,-0.91 5.55,-2.32 7.75,-4.13 2.17,-1.82 3.87,-4.05 5.14,-6.79 1.23,-2.69 1.84,-5.79 1.84,-9.27zm306.48 41.58c0,0.79 -0.24,1.53 -0.77,2.2 -0.54,0.62 -1.39,1.16 -2.58,1.57 -1.18,0.37 -2.78,0.7 -4.77,0.95 -1.96,0.25 -4.48,0.38 -7.46,0.38 -3.1,0 -5.66,-0.13 -7.7,-0.38 -2.04,-0.25 -3.59,-0.58 -4.77,-0.95 -1.15,-0.41 -1.95,-0.95 -2.49,-1.57 -0.53,-0.67 -0.78,-1.41 -0.78,-2.2l0 -63.43 -57.97 0 0 63.43c0,0.79 -0.25,1.53 -0.74,2.2 -0.45,0.62 -1.3,1.16 -2.49,1.57 -1.19,0.37 -2.78,0.7 -4.77,0.95 -1.96,0.25 -4.52,0.38 -7.58,0.38 -3.02,0 -5.54,-0.13 -7.58,-0.38 -2.04,-0.25 -3.64,-0.58 -4.81,-0.95 -1.18,-0.41 -2.04,-0.95 -2.57,-1.57 -0.54,-0.67 -0.78,-1.41 -0.78,-2.2l0 -148.2c0,-0.78 0.24,-1.53 0.78,-2.19 0.53,-0.62 1.39,-1.16 2.57,-1.58 1.18,-0.41 2.78,-0.7 4.81,-0.95 2.04,-0.25 4.56,-0.37 7.58,-0.37 3.06,0 5.62,0.12 7.58,0.37 2,0.25 3.59,0.58 4.77,0.95 1.19,0.42 2.04,0.96 2.49,1.58 0.49,0.66 0.74,1.41 0.74,2.19l0 57.72 57.97 0 0 -57.72c0,-0.78 0.25,-1.53 0.78,-2.19 0.54,-0.62 1.34,-1.16 2.49,-1.58 1.19,-0.37 2.74,-0.7 4.77,-0.95 2.04,-0.25 4.6,-0.37 7.7,-0.37 2.98,0 5.5,0.12 7.46,0.37 2,0.25 3.6,0.54 4.77,0.95 1.19,0.42 2.04,0.96 2.58,1.58 0.53,0.66 0.77,1.41 0.77,2.19l0 148.2zm300.71 -75.92c0,12.99 -1.6,24.62 -4.77,34.87 -3.19,10.27 -7.92,18.99 -14.24,26.11 -6.27,7.16 -14.06,12.62 -23.31,16.39 -9.31,3.77 -20.02,5.62 -32.22,5.62 -12.02,0 -22.51,-1.61 -31.44,-4.79 -8.98,-3.19 -16.44,-8.03 -22.43,-14.61 -5.95,-6.53 -10.43,-14.85 -13.41,-24.95 -2.98,-10.1 -4.48,-22.05 -4.48,-35.87 0,-12.65 1.59,-24.08 4.77,-34.21 3.18,-10.14 7.91,-18.74 14.23,-25.86 6.27,-7.11 14.06,-12.57 23.32,-16.34 9.3,-3.8 20.06,-5.71 32.34,-5.71 11.7,0 22.01,1.57 30.99,4.71 8.93,3.15 16.43,7.99 22.42,14.57 6.03,6.53 10.57,14.77 13.62,24.74 3.06,10.01 4.61,21.76 4.61,35.33zm-33.04 1.61c0,-8.23 -0.65,-15.72 -1.91,-22.46 -1.27,-6.74 -3.43,-12.53 -6.49,-17.34 -3.06,-4.8 -7.13,-8.52 -12.23,-11.17 -5.09,-2.61 -11.45,-3.93 -19.08,-3.93 -7.7,0 -14.14,1.49 -19.27,4.42 -5.19,2.94 -9.38,6.91 -12.56,11.83 -3.19,4.92 -5.42,10.68 -6.73,17.26 -1.31,6.61 -1.96,13.56 -1.96,20.93 0,8.56 0.65,16.26 1.92,23.09 1.26,6.82 3.43,12.65 6.44,17.54 3.02,4.84 7.05,8.53 12.15,11.09 5.09,2.53 11.49,3.81 19.2,3.81 7.7,0 14.15,-1.45 19.28,-4.39 5.18,-2.9 9.39,-6.86 12.56,-11.87 3.18,-5 5.42,-10.84 6.72,-17.5 1.31,-6.66 1.96,-13.78 1.96,-21.31zm279.06 66.12c0,2.36 -0.09,4.3 -0.29,5.91 -0.2,1.58 -0.49,2.86 -0.89,3.8 -0.42,1 -0.91,1.7 -1.52,2.16 -0.57,0.45 -1.26,0.66 -1.96,0.66l-77.55 0c-2.61,0 -4.81,-0.79 -6.6,-2.36 -1.81,-1.58 -2.7,-4.13 -2.7,-7.7l0 -136.78c0,-3.56 0.89,-6.12 2.7,-7.69 1.79,-1.58 3.99,-2.37 6.6,-2.37l77.18 0c0.7,0 1.35,0.21 1.93,0.63 0.53,0.41 1.01,1.11 1.42,2.11 0.37,1.03 0.69,2.32 0.9,3.88 0.21,1.62 0.29,3.61 0.29,6.04 0,2.28 -0.08,4.18 -0.29,5.79 -0.21,1.58 -0.49,2.86 -0.9,3.8 -0.41,1 -0.89,1.7 -1.42,2.16 -0.58,0.45 -1.23,0.66 -1.93,0.66l-55.17 0 0 38.23 46.49 0c0.73,0 1.39,0.21 1.96,0.66 0.61,0.46 1.1,1.12 1.51,2.07 0.4,0.91 0.69,2.16 0.9,3.77 0.2,1.58 0.28,3.48 0.28,5.71 0,2.36 -0.08,4.3 -0.28,5.83 -0.21,1.53 -0.5,2.78 -0.9,3.69 -0.41,0.95 -0.9,1.61 -1.51,1.99 -0.57,0.41 -1.23,0.62 -1.96,0.62l-46.49 0 0 44.18 55.54 0c0.74,0 1.39,0.21 1.96,0.67 0.61,0.45 1.1,1.16 1.52,2.15 0.4,0.95 0.69,2.24 0.89,3.8 0.2,1.62 0.29,3.57 0.29,5.92zm727.24 -96.69c0,8.85 -1.34,16.63 -4.07,23.42 -2.69,6.82 -6.64,12.53 -11.86,17.17 -5.18,4.67 -11.53,8.19 -19.07,10.64 -7.55,2.44 -16.44,3.64 -26.67,3.64l-12.92 0 0 50.02c0,0.83 -0.25,1.53 -0.78,2.2 -0.53,0.62 -1.39,1.16 -2.57,1.57 -1.18,0.41 -2.78,0.7 -4.77,0.95 -1.95,0.25 -4.51,0.38 -7.58,0.38 -3.02,0 -5.55,-0.13 -7.59,-0.38 -2.04,-0.25 -3.62,-0.58 -4.81,-0.95 -1.18,-0.41 -2.04,-0.95 -2.48,-1.57 -0.49,-0.67 -0.74,-1.41 -0.74,-2.2l0 -141.12c0,-3.8 0.99,-6.66 2.94,-8.57 1.96,-1.9 4.52,-2.86 7.7,-2.86l36.46 0c3.67,0 7.17,0.13 10.48,0.42 3.31,0.29 7.26,0.91 11.91,1.82 4.6,0.95 9.29,2.65 14.02,5.17 4.72,2.49 8.81,5.67 12.14,9.52 3.36,3.84 5.92,8.32 7.67,13.48 1.76,5.13 2.61,10.89 2.61,17.26zm-32.78 2.32c0,-5.5 -0.98,-10.06 -2.9,-13.61 -1.91,-3.56 -4.28,-6.2 -7.1,-7.9 -2.81,-1.7 -5.74,-2.78 -8.8,-3.23 -3.1,-0.46 -6.28,-0.67 -9.59,-0.67l-13.45 0 0 53.37 14.19 0c5.05,0 9.26,-0.7 12.68,-2.07 3.39,-1.36 6.19,-3.31 8.35,-5.79 2.17,-2.44 3.8,-5.41 4.94,-8.85 1.09,-3.44 1.67,-7.2 1.67,-11.26zm276.56 94.38c0,2.36 -0.09,4.3 -0.28,5.91 -0.21,1.58 -0.5,2.86 -0.9,3.8 -0.42,1 -0.91,1.7 -1.52,2.16 -0.57,0.45 -1.26,0.66 -1.96,0.66l-77.55 0c-2.61,0 -4.81,-0.79 -6.6,-2.36 -1.81,-1.58 -2.7,-4.13 -2.7,-7.7l0 -136.78c0,-3.56 0.89,-6.12 2.7,-7.69 1.79,-1.58 3.99,-2.37 6.6,-2.37l77.19 0c0.7,0 1.35,0.21 1.92,0.63 0.53,0.41 1.01,1.11 1.43,2.11 0.36,1.03 0.69,2.32 0.89,3.88 0.21,1.62 0.29,3.61 0.29,6.04 0,2.28 -0.08,4.18 -0.29,5.79 -0.2,1.58 -0.49,2.86 -0.89,3.8 -0.42,1 -0.9,1.7 -1.43,2.16 -0.57,0.45 -1.22,0.66 -1.92,0.66l-55.17 0 0 38.23 46.48 0c0.73,0 1.39,0.21 1.96,0.66 0.62,0.46 1.1,1.12 1.51,2.07 0.41,0.91 0.69,2.16 0.9,3.77 0.21,1.58 0.28,3.48 0.28,5.71 0,2.36 -0.07,4.3 -0.28,5.83 -0.21,1.53 -0.49,2.78 -0.9,3.69 -0.41,0.95 -0.89,1.61 -1.51,1.99 -0.57,0.41 -1.23,0.62 -1.96,0.62l-46.48 0 0 44.18 55.53 0c0.74,0 1.39,0.21 1.96,0.67 0.61,0.45 1.1,1.16 1.52,2.15 0.4,0.95 0.69,2.24 0.9,3.8 0.19,1.62 0.28,3.57 0.28,5.92zm270.36 8.31c0,0.87 -0.25,1.62 -0.73,2.24 -0.45,0.62 -1.31,1.12 -2.57,1.53 -1.23,0.38 -2.91,0.71 -4.98,0.92 -2.08,0.2 -4.72,0.29 -7.99,0.29 -3.47,0 -6.24,-0.09 -8.32,-0.29 -2.12,-0.21 -3.82,-0.54 -5.1,-1 -1.3,-0.45 -2.24,-1.03 -2.89,-1.82 -0.61,-0.75 -1.11,-1.7 -1.43,-2.86l-12.43 -34.96c-1.76,-5.12 -3.6,-9.39 -5.51,-12.82 -1.91,-3.44 -4.03,-6.25 -6.35,-8.4 -2.29,-2.11 -4.93,-3.65 -7.88,-4.55 -2.98,-0.87 -6.28,-1.32 -9.94,-1.32l-7.06 0 0 62.93c0,0.87 -0.25,1.62 -0.74,2.24 -0.44,0.62 -1.3,1.12 -2.48,1.57 -1.19,0.46 -2.78,0.79 -4.77,1 -1.96,0.2 -4.53,0.29 -7.59,0.29 -3.02,0 -5.54,-0.09 -7.58,-0.29 -2.04,-0.21 -3.64,-0.54 -4.81,-1 -1.18,-0.45 -2.04,-0.95 -2.57,-1.57 -0.53,-0.62 -0.78,-1.37 -0.78,-2.24l0 -148.32c0,-0.87 0.25,-1.62 0.78,-2.24 0.53,-0.62 1.39,-1.12 2.57,-1.53 1.18,-0.37 2.78,-0.7 4.81,-0.91 2.04,-0.21 4.56,-0.29 7.58,-0.29 3.06,0 5.63,0.08 7.59,0.29 2,0.21 3.59,0.5 4.77,0.91 1.18,0.41 2.04,0.91 2.48,1.53 0.49,0.58 0.74,1.33 0.74,2.24l0 58.83 7.06 0c3.58,0 6.76,-0.5 9.46,-1.45 2.73,-0.99 5.17,-2.53 7.38,-4.59 2.2,-2.11 4.19,-4.84 5.99,-8.19 1.8,-3.36 3.51,-7.49 5.22,-12.41l10.39 -31.24c0.42,-1.12 0.86,-2.07 1.43,-2.81 0.57,-0.79 1.47,-1.41 2.7,-1.83 1.22,-0.45 2.86,-0.78 4.89,-0.99 2,-0.21 4.72,-0.29 8.15,-0.29 3.1,0 5.67,0.08 7.67,0.29 2.04,0.21 3.63,0.5 4.77,0.87 1.18,0.37 1.96,0.83 2.32,1.45 0.41,0.62 0.61,1.37 0.61,2.24 0,1.03 -0.15,2.36 -0.53,3.88 -0.36,1.53 -0.97,3.56 -1.87,6.04l-10.36 27.84c-1.92,5.17 -3.83,9.6 -5.75,13.19 -1.92,3.65 -3.91,6.75 -6.04,9.27 -2.07,2.57 -4.31,4.63 -6.68,6.25 -2.32,1.62 -4.92,2.94 -7.78,4.01l0 0.08c3.18,1.41 6.07,2.94 8.64,4.67 2.61,1.78 5.06,3.97 7.34,6.62 2.24,2.69 4.44,5.96 6.52,9.85 2.05,3.89 4.16,8.65 6.32,14.32l12.68 32.56c1.3,3.31 2.04,5.58 2.28,6.87 0.25,1.24 0.37,2.28 0.37,3.1zm271.38 0.13c0,0.79 -0.25,1.49 -0.74,2.11 -0.44,0.62 -1.3,1.12 -2.48,1.53 -1.19,0.38 -2.82,0.71 -4.85,0.92 -2.05,0.2 -4.56,0.29 -7.59,0.29 -3.1,0 -5.67,-0.09 -7.67,-0.29 -1.96,-0.21 -3.58,-0.54 -4.76,-0.92 -1.19,-0.41 -2.05,-0.91 -2.49,-1.53 -0.49,-0.62 -0.74,-1.32 -0.74,-2.11l0 -126.73 -33.02 0c-2.25,18.54 -4.53,34.71 -6.85,48.58 -2.29,13.82 -4.77,25.7 -7.42,35.54 -2.63,9.89 -5.55,18 -8.7,24.29 -3.14,6.32 -6.77,11.34 -10.77,15.01 -4.03,3.69 -8.6,6.21 -13.7,7.58 -5.04,1.36 -10.85,2.07 -17.28,2.07 -1.22,0 -2.25,-0.17 -3.15,-0.5 -0.85,-0.29 -1.55,-0.91 -2.08,-1.82 -0.53,-0.87 -0.9,-2.12 -1.14,-3.73 -0.25,-1.62 -0.37,-3.69 -0.37,-6.16 0,-3.48 0.08,-6.29 0.24,-8.45 0.17,-2.11 0.46,-3.77 0.82,-4.92 0.4,-1.2 0.94,-1.98 1.6,-2.36 0.61,-0.41 1.38,-0.62 2.28,-0.62 2.45,0 4.85,-0.5 7.09,-1.53 2.29,-1 4.48,-2.98 6.61,-6 2.12,-2.98 4.15,-7.2 6.11,-12.61 1.96,-5.42 3.88,-12.54 5.75,-21.43 1.88,-8.86 3.75,-19.65 5.63,-32.4 1.87,-12.74 3.78,-27.88 5.7,-45.43 0.49,-4.13 1.43,-7.03 2.86,-8.69 1.43,-1.66 3.55,-2.49 6.32,-2.49l75.79 0c2.91,0 5.1,0.83 6.65,2.49 1.55,1.66 2.33,4.17 2.33,7.57l0 142.74zm288.35 -7.78c0.94,2.9 1.55,5.21 1.8,6.91 0.24,1.7 -0.08,2.98 -0.94,3.84 -0.91,0.83 -2.45,1.37 -4.69,1.58 -2.21,0.2 -5.29,0.29 -9.18,0.29 -4.07,0 -7.25,-0.05 -9.5,-0.17 -2.28,-0.12 -3.99,-0.37 -5.21,-0.75 -1.19,-0.37 -2,-0.87 -2.49,-1.53 -0.5,-0.62 -0.9,-1.49 -1.19,-2.53l-10.16 -31.52 -58.3 0 -9.75 30.65c-0.32,1.16 -0.73,2.12 -1.27,2.86 -0.48,0.79 -1.34,1.37 -2.48,1.83 -1.14,0.45 -2.78,0.74 -4.9,0.91 -2.12,0.16 -4.89,0.25 -8.32,0.25 -3.67,0 -6.52,-0.13 -8.6,-0.38 -2.08,-0.25 -3.51,-0.83 -4.28,-1.74 -0.82,-0.95 -1.1,-2.28 -0.85,-3.96 0.24,-1.7 0.85,-3.93 1.79,-6.79l47.63 -139.22c0.45,-1.37 1.02,-2.49 1.67,-3.32 0.62,-0.87 1.64,-1.49 3.03,-1.95 1.43,-0.45 3.34,-0.74 5.82,-0.87 2.46,-0.12 5.71,-0.16 9.79,-0.16 4.69,0 8.45,0.04 11.23,0.16 2.81,0.13 4.96,0.42 6.52,0.87 1.55,0.46 2.65,1.12 3.34,1.99 0.66,0.91 1.27,2.12 1.72,3.65l47.79 139.1zm-70.95 -115.19l-0.12 0 -21.54 66.74 43.39 0 -21.73 -66.74z"/>
  <path class="fil5" d="M5255.9 2429.05c0,0.79 -0.21,1.53 -0.65,2.2 -0.46,0.62 -1.27,1.16 -2.42,1.57 -1.14,0.37 -2.69,0.7 -4.6,0.95 -1.92,0.25 -4.35,0.38 -7.3,0.38 -2.9,0 -5.29,-0.13 -7.22,-0.38 -1.92,-0.25 -3.43,-0.58 -4.56,-0.95 -1.1,-0.41 -1.92,-0.95 -2.36,-1.57 -0.5,-0.67 -0.74,-1.41 -0.74,-2.2l0 -127.72 -0.25 0 -44.64 127.6c-0.33,1.03 -0.82,1.9 -1.55,2.61 -0.74,0.7 -1.68,1.24 -2.95,1.65 -1.22,0.38 -2.81,0.67 -4.68,0.79 -1.92,0.12 -4.24,0.17 -6.93,0.17 -2.74,0 -5.01,-0.09 -6.93,-0.29 -1.92,-0.21 -3.51,-0.54 -4.73,-1 -1.22,-0.45 -2.2,-0.99 -2.93,-1.61 -0.7,-0.67 -1.19,-1.45 -1.43,-2.32l-43.1 -127.6 -0.24 0 0 127.72c0,0.79 -0.21,1.53 -0.66,2.2 -0.45,0.62 -1.27,1.16 -2.45,1.57 -1.22,0.37 -2.78,0.7 -4.64,0.95 -1.88,0.25 -4.28,0.38 -7.22,0.38 -2.9,0 -5.3,-0.13 -7.22,-0.38 -1.92,-0.25 -3.47,-0.58 -4.6,-0.95 -1.14,-0.41 -1.96,-0.95 -2.42,-1.57 -0.44,-0.67 -0.65,-1.41 -0.65,-2.2l0 -139.81c0,-4.13 1.07,-7.28 3.23,-9.47 2.17,-2.2 5.01,-3.28 8.65,-3.28l20.55 0c3.67,0 6.85,0.29 9.46,0.92 2.65,0.62 4.93,1.61 6.85,3.02 1.87,1.41 3.51,3.27 4.77,5.58 1.26,2.32 2.4,5.17 3.34,8.57l33.32 93.46 0.49 0 34.49 -93.25c1.02,-3.4 2.16,-6.25 3.39,-8.61 1.27,-2.32 2.7,-4.22 4.31,-5.67 1.64,-1.45 3.6,-2.48 5.8,-3.1 2.24,-0.63 4.85,-0.92 7.78,-0.92l21.2 0c2.17,0 3.99,0.29 5.55,0.87 1.55,0.54 2.86,1.37 3.82,2.49 1.03,1.08 1.76,2.4 2.29,3.97 0.53,1.57 0.78,3.39 0.78,5.41l0 139.81zm282.4 0c0,0.79 -0.25,1.53 -0.78,2.2 -0.53,0.62 -1.39,1.16 -2.57,1.57 -1.18,0.37 -2.78,0.7 -4.77,0.95 -1.96,0.25 -4.49,0.38 -7.46,0.38 -3.11,0 -5.67,-0.13 -7.71,-0.38 -2.04,-0.25 -3.59,-0.58 -4.77,-0.95 -1.14,-0.41 -1.95,-0.95 -2.48,-1.57 -0.53,-0.67 -0.78,-1.41 -0.78,-2.2l0 -63.43 -57.98 0 0 63.43c0,0.79 -0.25,1.53 -0.74,2.2 -0.44,0.62 -1.3,1.16 -2.48,1.57 -1.19,0.37 -2.78,0.7 -4.77,0.95 -1.96,0.25 -4.53,0.38 -7.59,0.38 -3.02,0 -5.54,-0.13 -7.58,-0.38 -2.04,-0.25 -3.64,-0.58 -4.81,-0.95 -1.18,-0.41 -2.04,-0.95 -2.57,-1.57 -0.53,-0.67 -0.78,-1.41 -0.78,-2.2l0 -148.2c0,-0.78 0.25,-1.53 0.78,-2.19 0.53,-0.62 1.39,-1.16 2.57,-1.58 1.18,-0.41 2.78,-0.7 4.81,-0.95 2.04,-0.25 4.56,-0.37 7.58,-0.37 3.06,0 5.63,0.12 7.59,0.37 2,0.25 3.59,0.58 4.77,0.95 1.18,0.42 2.04,0.96 2.48,1.58 0.49,0.66 0.74,1.41 0.74,2.19l0 57.72 57.98 0 0 -57.72c0,-0.78 0.25,-1.53 0.78,-2.19 0.53,-0.62 1.34,-1.16 2.48,-1.58 1.19,-0.37 2.74,-0.7 4.77,-0.95 2.04,-0.25 4.6,-0.37 7.71,-0.37 2.97,0 5.5,0.12 7.46,0.37 2,0.25 3.6,0.54 4.77,0.95 1.18,0.42 2.04,0.96 2.57,1.58 0.53,0.66 0.78,1.41 0.78,2.19l0 148.2zm300.7 -75.92c0,12.99 -1.6,24.62 -4.77,34.87 -3.18,10.27 -7.91,18.99 -14.23,26.11 -6.28,7.16 -14.06,12.62 -23.32,16.39 -9.3,3.77 -20.01,5.62 -32.21,5.62 -12.03,0 -22.51,-1.61 -31.44,-4.79 -8.98,-3.19 -16.44,-8.03 -22.43,-14.61 -5.96,-6.53 -10.44,-14.85 -13.42,-24.95 -2.97,-10.1 -4.48,-22.05 -4.48,-35.87 0,-12.65 1.6,-24.08 4.77,-34.21 3.18,-10.14 7.91,-18.74 14.23,-25.86 6.28,-7.11 14.06,-12.57 23.33,-16.34 9.29,-3.8 20.05,-5.71 32.33,-5.71 11.7,0 22.02,1.57 31,4.71 8.93,3.15 16.43,7.99 22.42,14.57 6.03,6.53 10.56,14.77 13.62,24.74 3.05,10.01 4.6,21.76 4.6,35.33zm-33.03 1.61c0,-8.23 -0.66,-15.72 -1.92,-22.46 -1.27,-6.74 -3.43,-12.53 -6.48,-17.34 -3.07,-4.8 -7.14,-8.52 -12.23,-11.17 -5.1,-2.61 -11.45,-3.93 -19.08,-3.93 -7.71,0 -14.14,1.49 -19.28,4.42 -5.18,2.94 -9.38,6.91 -12.55,11.83 -3.2,4.92 -5.42,10.68 -6.73,17.26 -1.32,6.61 -1.97,13.56 -1.97,20.93 0,8.56 0.65,16.26 1.93,23.09 1.26,6.82 3.43,12.65 6.43,17.54 3.03,4.84 7.06,8.53 12.15,11.09 5.1,2.53 11.49,3.81 19.2,3.81 7.71,0 14.15,-1.45 19.29,-4.39 5.17,-2.9 9.38,-6.86 12.55,-11.87 3.19,-5 5.42,-10.84 6.72,-17.5 1.31,-6.66 1.97,-13.78 1.97,-21.31zm279.05 66.12c0,2.36 -0.08,4.3 -0.28,5.91 -0.21,1.58 -0.49,2.86 -0.9,3.8 -0.41,1 -0.9,1.7 -1.52,2.16 -0.57,0.45 -1.26,0.66 -1.96,0.66l-77.55 0c-2.61,0 -4.81,-0.79 -6.6,-2.36 -1.8,-1.58 -2.7,-4.13 -2.7,-7.7l0 -136.78c0,-3.56 0.9,-6.12 2.7,-7.69 1.79,-1.58 3.99,-2.37 6.6,-2.37l77.19 0c0.7,0 1.35,0.21 1.92,0.63 0.53,0.41 1.02,1.11 1.43,2.11 0.36,1.03 0.69,2.32 0.9,3.88 0.2,1.62 0.28,3.61 0.28,6.04 0,2.28 -0.08,4.18 -0.28,5.79 -0.21,1.58 -0.5,2.86 -0.9,3.8 -0.41,1 -0.9,1.7 -1.43,2.16 -0.57,0.45 -1.22,0.66 -1.92,0.66l-55.17 0 0 38.23 46.49 0c0.73,0 1.39,0.21 1.96,0.66 0.61,0.46 1.09,1.12 1.51,2.07 0.4,0.91 0.68,2.16 0.89,3.77 0.21,1.58 0.29,3.48 0.29,5.71 0,2.36 -0.08,4.3 -0.29,5.83 -0.21,1.53 -0.49,2.78 -0.89,3.69 -0.42,0.95 -0.9,1.61 -1.51,1.99 -0.57,0.41 -1.23,0.62 -1.96,0.62l-46.49 0 0 44.18 55.53 0c0.74,0 1.39,0.21 1.96,0.67 0.62,0.45 1.11,1.16 1.52,2.15 0.41,0.95 0.69,2.24 0.9,3.8 0.2,1.62 0.28,3.57 0.28,5.92zm803.22 0.66c0.94,2.9 1.55,5.21 1.8,6.91 0.24,1.7 -0.08,2.98 -0.94,3.84 -0.91,0.83 -2.45,1.37 -4.69,1.58 -2.21,0.2 -5.29,0.29 -9.18,0.29 -4.07,0 -7.25,-0.05 -9.5,-0.17 -2.28,-0.12 -3.99,-0.37 -5.21,-0.75 -1.19,-0.37 -2,-0.87 -2.49,-1.53 -0.5,-0.62 -0.9,-1.49 -1.19,-2.53l-10.16 -31.52 -58.3 0 -9.75 30.65c-0.32,1.16 -0.74,2.12 -1.27,2.86 -0.48,0.79 -1.34,1.37 -2.48,1.83 -1.15,0.45 -2.78,0.74 -4.9,0.91 -2.12,0.16 -4.89,0.25 -8.32,0.25 -3.67,0 -6.52,-0.13 -8.6,-0.38 -2.08,-0.25 -3.51,-0.83 -4.28,-1.74 -0.82,-0.95 -1.1,-2.28 -0.86,-3.96 0.25,-1.7 0.86,-3.93 1.8,-6.79l47.63 -139.22c0.45,-1.37 1.02,-2.49 1.67,-3.32 0.61,-0.87 1.64,-1.49 3.03,-1.95 1.43,-0.45 3.34,-0.74 5.82,-0.87 2.46,-0.12 5.71,-0.16 9.79,-0.16 4.69,0 8.44,0.04 11.22,0.16 2.82,0.13 4.97,0.42 6.53,0.87 1.55,0.46 2.65,1.12 3.34,1.99 0.66,0.91 1.27,2.12 1.71,3.65l47.8 139.1zm-70.96 -115.19l-0.11 0 -21.54 66.74 43.39 0 -21.74 -66.74zm308.21 -16.67c0,2.4 -0.08,4.42 -0.29,6.08 -0.21,1.66 -0.53,2.98 -0.9,3.97 -0.41,1.03 -0.89,1.74 -1.51,2.19 -0.62,0.46 -1.31,0.66 -2.08,0.66l-51.25 0 0 126.73c0,0.79 -0.25,1.49 -0.78,2.11 -0.53,0.62 -1.39,1.12 -2.57,1.53 -1.18,0.38 -2.82,0.71 -4.77,0.92 -2,0.2 -4.56,0.29 -7.67,0.29 -3.02,0 -5.54,-0.09 -7.58,-0.29 -2.04,-0.21 -3.67,-0.54 -4.85,-0.92 -1.18,-0.41 -2.04,-0.91 -2.57,-1.53 -0.53,-0.62 -0.78,-1.32 -0.78,-2.11l0 -142.74c0,-3.4 0.86,-5.91 2.57,-7.57 1.72,-1.66 3.96,-2.49 6.78,-2.49l73.47 0c1.59,0 2.77,1 3.59,3.03 0.78,2.03 1.19,5.37 1.19,10.14zm237.66 131.2c0,2.36 -0.09,4.3 -0.28,5.91 -0.21,1.58 -0.5,2.86 -0.9,3.8 -0.41,1 -0.91,1.7 -1.52,2.16 -0.57,0.45 -1.26,0.66 -1.96,0.66l-77.55 0c-2.61,0 -4.81,-0.79 -6.6,-2.36 -1.81,-1.58 -2.7,-4.13 -2.7,-7.7l0 -136.78c0,-3.56 0.89,-6.12 2.7,-7.69 1.79,-1.58 3.99,-2.37 6.6,-2.37l77.19 0c0.7,0 1.35,0.21 1.92,0.63 0.53,0.41 1.01,1.11 1.43,2.11 0.36,1.03 0.69,2.32 0.89,3.88 0.21,1.62 0.29,3.61 0.29,6.04 0,2.28 -0.08,4.18 -0.29,5.79 -0.2,1.58 -0.49,2.86 -0.89,3.8 -0.42,1 -0.9,1.7 -1.43,2.16 -0.57,0.45 -1.22,0.66 -1.92,0.66l-55.17 0 0 38.23 46.48 0c0.73,0 1.39,0.21 1.97,0.66 0.61,0.46 1.09,1.12 1.5,2.07 0.41,0.91 0.69,2.16 0.9,3.77 0.21,1.58 0.29,3.48 0.29,5.71 0,2.36 -0.08,4.3 -0.29,5.83 -0.21,1.53 -0.49,2.78 -0.9,3.69 -0.41,0.95 -0.89,1.61 -1.5,1.99 -0.58,0.41 -1.24,0.62 -1.97,0.62l-46.48 0 0 44.18 55.53 0c0.74,0 1.39,0.21 1.96,0.67 0.61,0.45 1.11,1.16 1.52,2.15 0.4,0.95 0.69,2.24 0.9,3.8 0.19,1.62 0.28,3.57 0.28,5.92zm276.48 8.19c0,0.79 -0.25,1.53 -0.78,2.2 -0.53,0.62 -1.39,1.16 -2.57,1.57 -1.18,0.37 -2.78,0.7 -4.77,0.95 -1.96,0.25 -4.48,0.38 -7.46,0.38 -3.11,0 -5.67,-0.13 -7.71,-0.38 -2.04,-0.25 -3.58,-0.58 -4.77,-0.95 -1.14,-0.41 -1.95,-0.95 -2.48,-1.57 -0.53,-0.67 -0.78,-1.41 -0.78,-2.2l0 -63.43 -57.98 0 0 63.43c0,0.79 -0.24,1.53 -0.74,2.2 -0.44,0.62 -1.3,1.16 -2.48,1.57 -1.19,0.37 -2.78,0.7 -4.77,0.95 -1.96,0.25 -4.52,0.38 -7.59,0.38 -3.01,0 -5.54,-0.13 -7.58,-0.38 -2.04,-0.25 -3.63,-0.58 -4.81,-0.95 -1.18,-0.41 -2.04,-0.95 -2.57,-1.57 -0.53,-0.67 -0.78,-1.41 -0.78,-2.2l0 -148.2c0,-0.78 0.25,-1.53 0.78,-2.19 0.53,-0.62 1.39,-1.16 2.57,-1.58 1.19,-0.41 2.78,-0.7 4.81,-0.95 2.04,-0.25 4.57,-0.37 7.58,-0.37 3.07,0 5.63,0.12 7.59,0.37 2,0.25 3.59,0.58 4.77,0.95 1.18,0.42 2.04,0.96 2.48,1.58 0.5,0.66 0.74,1.41 0.74,2.19l0 57.72 57.98 0 0 -57.72c0,-0.78 0.25,-1.53 0.78,-2.19 0.53,-0.62 1.34,-1.16 2.48,-1.58 1.2,-0.37 2.74,-0.7 4.77,-0.95 2.04,-0.25 4.6,-0.37 7.71,-0.37 2.98,0 5.5,0.12 7.46,0.37 2,0.25 3.6,0.54 4.77,0.95 1.18,0.42 2.04,0.96 2.57,1.58 0.53,0.66 0.78,1.41 0.78,2.19l0 148.2zm268.65 -19.36c0,2.03 -0.05,3.77 -0.17,5.17 -0.11,1.41 -0.32,2.65 -0.57,3.65 -0.2,1.03 -0.53,1.9 -0.93,2.65 -0.42,0.7 -1.03,1.53 -1.92,2.44 -0.86,0.91 -2.58,2.11 -5.06,3.56 -2.52,1.41 -5.58,2.82 -9.22,4.14 -3.63,1.28 -7.74,2.4 -12.38,3.27 -4.65,0.87 -9.71,1.33 -15.13,1.33 -10.57,0 -20.11,-1.66 -28.63,-4.97 -8.51,-3.31 -15.78,-8.27 -21.73,-14.85 -5.99,-6.58 -10.57,-14.77 -13.74,-24.66 -3.18,-9.85 -4.77,-21.31 -4.77,-34.38 0,-13.32 1.77,-25.16 5.26,-35.49 3.51,-10.35 8.4,-19.03 14.68,-26.07 6.28,-7.03 13.83,-12.33 22.64,-15.97 8.76,-3.65 18.46,-5.46 29.06,-5.46 4.28,0 8.41,0.37 12.4,1.12 3.99,0.7 7.66,1.65 11.05,2.86 3.38,1.16 6.4,2.52 9.14,4.05 2.69,1.57 4.6,2.9 5.66,3.96 1.06,1.12 1.8,2.03 2.2,2.74 0.42,0.74 0.74,1.65 0.94,2.77 0.25,1.16 0.45,2.49 0.57,4.01 0.13,1.53 0.17,3.4 0.17,5.67 0,2.4 -0.08,4.46 -0.25,6.16 -0.16,1.7 -0.44,3.06 -0.81,4.09 -0.41,1.04 -0.9,1.82 -1.43,2.28 -0.58,0.5 -1.23,0.74 -1.92,0.74 -1.19,0 -2.7,-0.7 -4.52,-2.11 -1.84,-1.41 -4.2,-2.98 -7.09,-4.71 -2.9,-1.74 -6.36,-3.31 -10.41,-4.71 -3.99,-1.41 -8.76,-2.12 -14.35,-2.12 -6.11,0 -11.57,1.29 -16.39,3.81 -4.81,2.56 -8.89,6.16 -12.27,10.88 -3.39,4.75 -5.95,10.47 -7.71,17.17 -1.75,6.66 -2.61,14.23 -2.61,22.63 0,9.19 0.94,17.18 2.81,23.92 1.88,6.7 4.52,12.28 7.99,16.63 3.43,4.34 7.63,7.62 12.52,9.73 4.89,2.15 10.41,3.23 16.52,3.23 5.54,0 10.35,-0.66 14.43,-1.99 4.03,-1.32 7.5,-2.81 10.4,-4.38 2.94,-1.61 5.3,-3.06 7.18,-4.34 1.88,-1.28 3.31,-1.95 4.36,-1.95 0.77,0 1.43,0.17 1.87,0.5 0.5,0.33 0.9,0.95 1.23,1.95 0.28,0.95 0.53,2.32 0.7,4.05 0.15,1.78 0.24,4.09 0.24,7.03zm253.36 -120.1c0,2.36 -0.08,4.34 -0.29,6.03 -0.2,1.66 -0.49,2.99 -0.89,3.97 -0.41,1.04 -0.9,1.78 -1.51,2.24 -0.57,0.5 -1.27,0.74 -1.96,0.74l-38.66 0 0 126.48c0,0.79 -0.24,1.53 -0.77,2.2 -0.54,0.62 -1.39,1.16 -2.58,1.57 -1.18,0.37 -2.81,0.7 -4.84,0.95 -2.04,0.25 -4.57,0.38 -7.59,0.38 -3.02,0 -5.54,-0.13 -7.58,-0.38 -2.05,-0.25 -3.68,-0.58 -4.85,-0.95 -1.19,-0.41 -2.05,-0.95 -2.57,-1.57 -0.53,-0.67 -0.78,-1.41 -0.78,-2.2l0 -126.48 -38.66 0c-0.77,0 -1.47,-0.24 -2.04,-0.74 -0.53,-0.46 -1.02,-1.2 -1.43,-2.24 -0.37,-0.99 -0.69,-2.32 -0.9,-3.97 -0.21,-1.69 -0.28,-3.68 -0.28,-6.03 0,-2.41 0.07,-4.47 0.28,-6.17 0.21,-1.7 0.53,-3.06 0.9,-4.05 0.41,-1.03 0.9,-1.74 1.43,-2.19 0.57,-0.46 1.27,-0.67 2.04,-0.67l108.88 0c0.69,0 1.35,0.21 1.96,0.67 0.61,0.45 1.1,1.16 1.51,2.19 0.4,1 0.69,2.36 0.89,4.05 0.21,1.7 0.29,3.77 0.29,6.17zm258.22 96.72c0,5.59 -0.78,10.64 -2.29,15.19 -1.52,4.5 -3.6,8.52 -6.24,11.99 -2.69,3.48 -5.87,6.46 -9.54,8.98 -3.72,2.53 -7.8,4.55 -12.23,6.21 -4.44,1.61 -9.22,2.81 -14.27,3.56 -5.06,0.79 -10.69,1.16 -16.88,1.16l-41.07 0c-2.61,0 -4.81,-0.79 -6.6,-2.36 -1.81,-1.58 -2.7,-4.13 -2.7,-7.7l0 -136.78c0,-3.56 0.89,-6.12 2.7,-7.69 1.79,-1.58 3.99,-2.37 6.6,-2.37l38.73 0c9.47,0 17.47,0.83 24.03,2.45 6.56,1.61 12.06,4.05 16.56,7.32 4.51,3.27 7.94,7.41 10.31,12.41 2.41,5 3.59,10.88 3.59,17.67 0,3.8 -0.48,7.36 -1.43,10.72 -0.93,3.35 -2.36,6.41 -4.15,9.14 -1.84,2.78 -4.08,5.17 -6.77,7.29 -2.65,2.11 -5.66,3.8 -9.09,5.08 4.35,0.83 8.44,2.24 12.15,4.26 3.71,2.03 6.93,4.63 9.67,7.82 2.77,3.19 4.92,6.95 6.51,11.22 1.6,4.29 2.42,9.1 2.42,14.43zm-40.62 -66.11c0,-3.15 -0.49,-5.95 -1.43,-8.48 -0.94,-2.49 -2.37,-4.59 -4.27,-6.25 -1.93,-1.65 -4.33,-2.9 -7.23,-3.8 -2.9,-0.87 -6.76,-1.32 -11.61,-1.32l-15.82 0 0 40.71 17.49 0c4.52,0 8.16,-0.54 10.85,-1.66 2.7,-1.07 4.94,-2.56 6.73,-4.46 1.79,-1.91 3.1,-4.13 3.99,-6.66 0.86,-2.57 1.31,-5.21 1.31,-8.07zm8.07 67.27c0,-3.64 -0.61,-6.9 -1.79,-9.8 -1.19,-2.86 -2.95,-5.26 -5.26,-7.2 -2.29,-1.95 -5.22,-3.44 -8.81,-4.51 -3.59,-1.03 -8.24,-1.57 -13.99,-1.57l-18.59 0 0 44.68 22.67 0c4.36,0 8.03,-0.46 11.05,-1.41 2.99,-0.91 5.55,-2.32 7.75,-4.13 2.16,-1.82 3.87,-4.05 5.13,-6.79 1.23,-2.69 1.84,-5.79 1.84,-9.27zm324.84 -34.33c0,12.99 -1.6,24.62 -4.77,34.87 -3.18,10.27 -7.91,18.99 -14.23,26.11 -6.28,7.16 -14.06,12.62 -23.32,16.39 -9.3,3.77 -20.01,5.62 -32.21,5.62 -12.03,0 -22.51,-1.61 -31.44,-4.79 -8.98,-3.19 -16.44,-8.03 -22.43,-14.61 -5.96,-6.53 -10.44,-14.85 -13.42,-24.95 -2.97,-10.1 -4.48,-22.05 -4.48,-35.87 0,-12.65 1.6,-24.08 4.77,-34.21 3.18,-10.14 7.91,-18.74 14.23,-25.86 6.28,-7.11 14.06,-12.57 23.33,-16.34 9.29,-3.8 20.05,-5.71 32.33,-5.71 11.7,0 22.02,1.57 31,4.71 8.93,3.15 16.43,7.99 22.42,14.57 6.03,6.53 10.56,14.77 13.62,24.74 3.05,10.01 4.6,21.76 4.6,35.33zm-33.03 1.61c0,-8.23 -0.66,-15.72 -1.92,-22.46 -1.27,-6.74 -3.43,-12.53 -6.48,-17.34 -3.07,-4.8 -7.14,-8.52 -12.23,-11.17 -5.1,-2.61 -11.45,-3.93 -19.08,-3.93 -7.71,0 -14.14,1.49 -19.28,4.42 -5.18,2.94 -9.38,6.91 -12.55,11.83 -3.2,4.92 -5.42,10.68 -6.73,17.26 -1.32,6.61 -1.97,13.56 -1.97,20.93 0,8.56 0.65,16.26 1.93,23.09 1.26,6.82 3.43,12.65 6.43,17.54 3.03,4.84 7.06,8.53 12.15,11.09 5.1,2.53 11.49,3.81 19.2,3.81 7.71,0 14.15,-1.45 19.29,-4.39 5.17,-2.9 9.38,-6.86 12.55,-11.87 3.19,-5 5.42,-10.84 6.72,-17.5 1.31,-6.66 1.97,-13.78 1.97,-21.31zm-5176.8 117.75c0,0.79 -0.21,1.53 -0.66,2.2 -0.45,0.62 -1.23,1.16 -2.33,1.61 -1.14,0.46 -2.61,0.79 -4.4,1 -1.79,0.2 -4.07,0.29 -6.84,0.29 -2.74,0 -4.98,-0.09 -6.78,-0.29 -1.79,-0.21 -3.26,-0.54 -4.39,-1 -1.1,-0.45 -1.88,-0.99 -2.33,-1.61 -0.45,-0.67 -0.66,-1.41 -0.66,-2.2l0 -209.14c0,-0.83 0.21,-1.53 0.66,-2.2 0.45,-0.62 1.23,-1.2 2.33,-1.61 1.14,-0.46 2.61,-0.79 4.39,-1.04 1.8,-0.25 4.04,-0.37 6.78,-0.37 2.77,0 5.05,0.12 6.84,0.37 1.8,0.25 3.27,0.58 4.4,1.04 1.1,0.41 1.88,0.99 2.33,1.61 0.45,0.67 0.66,1.37 0.66,2.2l0 209.14zm2959.97 0c0,0.79 -0.21,1.53 -0.66,2.2 -0.44,0.62 -1.22,1.16 -2.33,1.61 -1.14,0.46 -2.61,0.79 -4.39,1 -1.79,0.2 -4.07,0.29 -6.85,0.29 -2.74,0 -4.98,-0.09 -6.77,-0.29 -1.79,-0.21 -3.26,-0.54 -4.4,-1 -1.1,-0.45 -1.88,-0.99 -2.32,-1.61 -0.46,-0.67 -0.66,-1.41 -0.66,-2.2l0 -209.14c0,-0.83 0.2,-1.53 0.66,-2.2 0.44,-0.62 1.22,-1.2 2.32,-1.61 1.15,-0.46 2.62,-0.79 4.4,-1.04 1.79,-0.25 4.03,-0.37 6.77,-0.37 2.78,0 5.06,0.12 6.85,0.37 1.79,0.25 3.26,0.58 4.39,1.04 1.11,0.41 1.89,0.99 2.33,1.61 0.45,0.67 0.66,1.37 0.66,2.2l0 209.14z"/>
 </g>
</svg>
