<svg width="24" height="25" viewBox="0 0 24 25" fill="none" xmlns="http://www.w3.org/2000/svg">
<path fill-rule="evenodd" clip-rule="evenodd" d="M12.2412 1.69363C14.1947 -0.259857 17.362 -0.259857 19.3154 1.69363C21.2097 3.58793 21.2671 6.62352 19.4873 8.58733L19.3151 8.76823L10.1154 17.9578C8.94344 19.1299 7.04324 19.1299 5.87123 17.9578C4.7461 16.8327 4.7011 15.0365 5.73658 13.8573L5.87165 13.7132L14.3616 5.23322C14.7524 4.84292 15.3856 4.8433 15.7759 5.23405C16.1361 5.59475 16.1635 6.16199 15.8583 6.5541L15.775 6.64826L7.28544 15.1278C6.89448 15.5188 6.89448 16.1527 7.28544 16.5436C7.64633 16.9045 8.21419 16.9323 8.60722 16.6266L8.70161 16.5432L17.9012 7.35363C19.0737 6.18119 19.0737 4.28029 17.9012 3.10785C16.7757 1.9823 14.9788 1.93728 13.7995 2.97278L13.6554 3.10785L4.46544 12.2978C2.51152 14.2518 2.51152 17.4197 4.46544 19.3736C6.36016 21.2683 9.39642 21.3258 11.3603 19.5459L11.5412 19.3736L20.7312 10.1836C21.1218 9.79311 21.7549 9.79311 22.1454 10.1836C22.5059 10.5441 22.5337 11.1113 22.2286 11.5036L22.1454 11.5978L12.9554 20.7878C10.2205 23.5228 5.7862 23.5228 3.05123 20.7878C0.378415 18.115 0.31767 13.8193 2.86899 11.0727L3.05123 10.8836L12.2412 1.69363Z" fill="#6D5DD3"/>
</svg>
