<svg width="24" height="20" viewBox="0 0 24 20" fill="none" xmlns="http://www.w3.org/2000/svg">
<path d="M7.25 0C7.80228 1.2563e-07 8.25 0.447715 8.25 1V2H15.75V1C15.75 0.447715 16.1977 3.06021e-08 16.75 0H17.25C17.8023 0 18.25 0.447715 18.25 1V2C21.0114 2 23.25 3.79086 23.25 6V16C23.25 18.2091 21.0114 20 18.25 20H5.75C2.98858 20 0.75 18.2091 0.75 16V6C0.75 3.79086 2.98858 2 5.75 2V1C5.75 0.447715 6.19772 0 6.75 0H7.25ZM8.24512 4.10254C8.19379 4.60667 7.76768 5 7.25 5H6.75C6.23232 5 5.80621 4.60667 5.75488 4.10254L5.75 4C4.43211 4 3.35236 4.8158 3.25684 5.85059L3.25 6V7H20.75V6C20.75 4.94564 19.7301 4.08221 18.4365 4.00586L18.25 4C18.25 4.55228 17.8023 5 17.25 5H16.75C16.2323 5 15.8062 4.60667 15.7549 4.10254L15.75 4H8.25L8.24512 4.10254Z" fill="#7D8592"/>
</svg>
