<svg width="20" height="21" viewBox="0 0 20 21" fill="none" xmlns="http://www.w3.org/2000/svg">
<g clip-path="url(#clip0_32_13309)">
<path d="M3.125 0.918457C2.2962 0.918457 1.50134 1.18185 0.915291 1.65069C0.32924 2.11953 0 2.75542 0 3.41846V18.4185C0 19.0815 0.32924 19.7174 0.915291 20.1862C1.50134 20.6551 2.2962 20.9185 3.125 20.9185H19.0625C19.3111 20.9185 19.5496 20.8394 19.7254 20.6988C19.9012 20.5581 20 20.3674 20 20.1685C20 19.9695 19.9012 19.7788 19.7254 19.6381C19.5496 19.4975 19.3111 19.4185 19.0625 19.4185H3.125C2.79348 19.4185 2.47554 19.3131 2.24112 19.1256C2.0067 18.938 1.875 18.6837 1.875 18.4185H19.0625C19.3111 18.4185 19.5496 18.3394 19.7254 18.1988C19.9012 18.0581 20 17.8674 20 17.6685V3.41846C20 2.75542 19.6708 2.11953 19.0847 1.65069C18.4987 1.18185 17.7038 0.918457 16.875 0.918457H3.125ZM1.875 16.9185V3.41846C1.875 3.15324 2.0067 2.89889 2.24112 2.71135C2.47554 2.52381 2.79348 2.41846 3.125 2.41846H16.875C17.2065 2.41846 17.5245 2.52381 17.7589 2.71135C17.9933 2.89889 18.125 3.15324 18.125 3.41846V16.9185H1.875ZM12.5 6.91846C12.5 7.44889 12.2366 7.9576 11.7678 8.33267C11.2989 8.70774 10.663 8.91846 10 8.91846C9.33696 8.91846 8.70107 8.70774 8.23223 8.33267C7.76339 7.9576 7.5 7.44889 7.5 6.91846C7.5 6.38802 7.76339 5.87932 8.23223 5.50424C8.70107 5.12917 9.33696 4.91846 10 4.91846C10.663 4.91846 11.2989 5.12917 11.7678 5.50424C12.2366 5.87932 12.5 6.38802 12.5 6.91846ZM14.375 11.4185C14.375 12.6635 13.125 13.9185 10 13.9185C6.875 13.9185 5.625 12.6685 5.625 11.4185C5.625 11.0206 5.82254 10.6391 6.17417 10.3578C6.52581 10.0765 7.00272 9.91846 7.5 9.91846H12.5C12.9973 9.91846 13.4742 10.0765 13.8258 10.3578C14.1775 10.6391 14.375 11.0206 14.375 11.4185Z" fill="#3D70DF"/>
</g>
<defs>
<clipPath id="clip0_32_13309">
<rect width="20" height="20" fill="white" transform="translate(0 0.918457)"/>
</clipPath>
</defs>
</svg>
