<svg width="19" height="24" viewBox="0 0 19 24" fill="none" xmlns="http://www.w3.org/2000/svg">
<g clip-path="url(#clip0_32_12781)">
<path d="M17.9444 3.30063C18.2244 3.30063 18.4929 3.41655 18.6908 3.62288C18.8888 3.82921 19 4.10905 19 4.40084C19 4.69264 18.8888 4.97248 18.6908 5.17881C18.4929 5.38514 18.2244 5.50105 17.9444 5.50105H16.8889L16.8857 5.57917L15.9009 19.96C15.863 20.5152 15.6246 21.0347 15.2339 21.414C14.8432 21.7933 14.329 22.0042 13.7951 22.0042H5.20389C4.66993 22.0042 4.15579 21.7933 3.76505 21.414C3.3743 21.0347 3.13597 20.5152 3.09806 19.96L2.11322 5.58027L2.11111 5.50105H1.05556C0.775605 5.50105 0.50712 5.38514 0.309165 5.17881C0.11121 4.97248 0 4.69264 0 4.40084C0 4.10905 0.11121 3.82921 0.309165 3.62288C0.50712 3.41655 0.775605 3.30063 1.05556 3.30063H17.9444ZM14.7746 5.50105H4.22539L5.20494 19.8038H13.7951L14.7746 5.50105ZM11.6111 0C11.8911 0 12.1595 0.115915 12.3575 0.322244C12.5555 0.528574 12.6667 0.808417 12.6667 1.10021C12.6667 1.392 12.5555 1.67185 12.3575 1.87818C12.1595 2.08451 11.8911 2.20042 11.6111 2.20042H7.38889C7.10894 2.20042 6.84045 2.08451 6.6425 1.87818C6.44454 1.67185 6.33333 1.392 6.33333 1.10021C6.33333 0.808417 6.44454 0.528574 6.6425 0.322244C6.84045 0.115915 7.10894 0 7.38889 0H11.6111Z" fill="black"/>
</g>
<defs>
<clipPath id="clip0_32_12781">
<rect width="19" height="24" fill="white"/>
</clipPath>
</defs>
</svg>
