<svg width="24" height="25" viewBox="0 0 24 25" fill="none" xmlns="http://www.w3.org/2000/svg">
<path d="M7.99997 4.91846C11.3136 4.91846 13.9999 7.6048 14 10.9185C14 12.8689 13.0685 14.6009 11.6269 15.6968C13.307 16.4474 14.7786 17.7143 15.8427 19.3794C16.1401 19.8446 16.004 20.4627 15.539 20.7603C15.0737 21.0577 14.4546 20.9219 14.1572 20.4565C12.7349 18.2312 10.4377 16.9184 7.99997 16.9185C5.56233 16.9186 3.26486 18.2312 1.84275 20.4565C1.5454 20.9219 0.927253 21.0585 0.461886 20.7612C-0.00340625 20.4639 -0.139943 19.8457 0.157198 19.3804C1.22113 17.7154 2.69229 16.4476 4.37204 15.6968C2.93096 14.6009 1.99997 12.8686 1.99997 10.9185C2.00004 7.60484 4.68636 4.91852 7.99997 4.91846ZM14.7138 5.14795C16.8793 4.50165 19.2002 5.24776 20.6484 7.04443C22.0787 8.81895 22.4021 11.2994 21.4834 13.4106C21.0761 14.3464 20.4555 15.1359 19.6982 15.728C21.3491 16.4824 22.7944 17.7374 23.8427 19.3804C24.1398 19.8459 24.0035 20.4641 23.5381 20.7612C23.0725 21.0583 22.4543 20.922 22.1572 20.4565C20.7364 18.2297 18.4386 16.9165 16.0009 16.9185C15.4487 16.9189 15.0004 16.4717 15 15.9194C14.9995 15.3673 15.4469 14.9191 15.999 14.9185C16.0687 14.9184 16.1385 14.9198 16.208 14.9214C16.2319 14.9197 16.2559 14.9185 16.2802 14.9185C17.7175 14.9183 19.0348 14.025 19.6494 12.6128C20.2725 11.181 20.052 9.4918 19.0908 8.29932C18.1474 7.12909 16.6656 6.65229 15.2861 7.06396C14.7569 7.22192 14.1999 6.92131 14.042 6.39209C13.884 5.86296 14.1848 5.306 14.7138 5.14795ZM7.99997 6.91846C5.79093 6.91852 4.00004 8.70941 3.99997 10.9185C3.99997 13.1276 5.79089 14.9184 7.99997 14.9185C10.2091 14.9185 12 13.1276 12 10.9185C11.9999 8.70937 10.2091 6.91846 7.99997 6.91846Z" fill="#3D70DF"/>
</svg>
