<svg width="24" height="24" viewBox="0 0 24 24" fill="none" xmlns="http://www.w3.org/2000/svg">
<path d="M13.557 19.1035C14.3275 19.1035 14.8086 19.9379 14.4222 20.6045C13.9214 21.468 12.9985 21.9999 12.0004 22C11.002 22 10.0784 21.4681 9.57751 20.6045C9.21059 19.9713 9.62645 19.1864 10.3295 19.1094L10.4427 19.1035H13.557ZM12.0004 2C15.9513 2.00021 19.1691 5.13998 19.2963 9.06055L19.3002 9.30078V13.8018C19.3002 14.6914 19.9829 15.4215 20.8529 15.4961L21.1332 15.5098C22.2444 15.6291 22.2869 17.2406 21.2611 17.4746L21.1332 17.4951L21.0004 17.502H3.00036L2.86657 17.4951C1.71114 17.3709 1.71115 15.634 2.86657 15.5098L3.14685 15.4961C3.96859 15.4257 4.62349 14.7703 4.69372 13.9482L4.69958 13.8018V9.30078C4.69976 5.26868 7.96876 2 12.0004 2ZM12.0004 4C9.14647 4 6.81904 6.25657 6.70446 9.08301L6.69958 9.30078V13.8018C6.69958 14.3103 6.59709 14.7952 6.4115 15.2363L6.31189 15.4531L6.28454 15.502H17.7142L17.6879 15.4531C17.504 15.085 17.3796 14.6813 17.3275 14.2559L17.305 13.998L17.3002 13.8018V9.30078C17.3 6.3733 14.9271 4.00022 12.0004 4Z" fill="#172343"/>
</svg>
