<svg width="19" height="18" viewBox="0 0 19 18" fill="none" xmlns="http://www.w3.org/2000/svg">
<path fill-rule="evenodd" clip-rule="evenodd" d="M5.91675 3.75C5.91675 2.50736 6.92411 1.5 8.16675 1.5H11.1667C12.4094 1.5 13.4167 2.50736 13.4167 3.75V4.5C13.4167 4.91421 13.081 5.25 12.6667 5.25H6.66675C6.25253 5.25 5.91675 4.91421 5.91675 4.5V3.75ZM8.16675 3C7.75253 3 7.41675 3.33579 7.41675 3.75H11.9167C11.9167 3.33579 11.581 3 11.1667 3H8.16675Z" fill="white"/>
<path fill-rule="evenodd" clip-rule="evenodd" d="M1.41675 6C1.41675 4.75736 2.42411 3.75 3.66675 3.75H15.6667C16.9094 3.75 17.9167 4.75736 17.9167 6V14.25C17.9167 15.4926 16.9094 16.5 15.6667 16.5H3.66675C2.42411 16.5 1.41675 15.4926 1.41675 14.25V6ZM3.66675 5.25C3.25253 5.25 2.91675 5.58579 2.91675 6V14.25C2.91675 14.6642 3.25253 15 3.66675 15H15.6667C16.081 15 16.4167 14.6642 16.4167 14.25V6C16.4167 5.58579 16.081 5.25 15.6667 5.25H3.66675Z" fill="white"/>
<path fill-rule="evenodd" clip-rule="evenodd" d="M1.41675 6C1.41675 4.75736 2.42411 3.75 3.66675 3.75H15.6667C16.9094 3.75 17.9167 4.75736 17.9167 6V8.25C17.9167 8.58121 17.6995 8.8732 17.3823 8.96837L9.88226 11.2184C9.74168 11.2605 9.59182 11.2605 9.45124 11.2184L1.95124 8.96837C1.634 8.8732 1.41675 8.58121 1.41675 8.25V6ZM3.66675 5.25C3.25253 5.25 2.91675 5.58579 2.91675 6V7.69198L9.66675 9.71698L16.4167 7.69198V6C16.4167 5.58579 16.081 5.25 15.6667 5.25H3.66675Z" fill="white"/>
<path fill-rule="evenodd" clip-rule="evenodd" d="M8.91675 12V9H10.4167V12H8.91675Z" fill="white"/>
</svg>
