<svg width="22" height="23" viewBox="0 0 22 23" fill="none" xmlns="http://www.w3.org/2000/svg">
<g clip-path="url(#clip0_32_13294)">
<path d="M1 19.3369C1 18.0108 1.52678 16.7391 2.46447 15.8014C3.40215 14.8637 4.67392 14.3369 6 14.3369H16C17.3261 14.3369 18.5979 14.8637 19.5355 15.8014C20.4732 16.7391 21 18.0108 21 19.3369C21 20 20.7366 20.6358 20.2678 21.1047C19.7989 21.5735 19.163 21.8369 18.5 21.8369H3.5C2.83696 21.8369 2.20107 21.5735 1.73223 21.1047C1.26339 20.6358 1 20 1 19.3369Z" stroke="#3D70DF" stroke-width="1.5" stroke-linejoin="round"/>
<path d="M11 9.33691C13.0711 9.33691 14.75 7.65798 14.75 5.58691C14.75 3.51585 13.0711 1.83691 11 1.83691C8.92893 1.83691 7.25 3.51585 7.25 5.58691C7.25 7.65798 8.92893 9.33691 11 9.33691Z" stroke="#3D70DF" stroke-width="1.5"/>
</g>
<defs>
<clipPath id="clip0_32_13294">
<rect width="22" height="22" fill="white" transform="translate(0 0.918457)"/>
</clipPath>
</defs>
</svg>
