<svg width="20" height="21" viewBox="0 0 20 21" fill="none" xmlns="http://www.w3.org/2000/svg">
<g clip-path="url(#clip0_32_13302)">
<path d="M0 3.10596C0 1.89846 0.98 0.918457 2.1875 0.918457H17.8125C19.02 0.918457 20 1.89846 20 3.10596V18.731C20 19.3111 19.7695 19.8675 19.3593 20.2778C18.9491 20.688 18.3927 20.9185 17.8125 20.9185H7.1875C6.93886 20.9185 6.7004 20.8197 6.52459 20.6439C6.34877 20.4681 6.25 20.2296 6.25 19.981C6.25 19.7323 6.34877 19.4939 6.52459 19.318C6.7004 19.1422 6.93886 19.0435 7.1875 19.0435H17.8125C17.8954 19.0435 17.9749 19.0105 18.0335 18.9519C18.0921 18.8933 18.125 18.8138 18.125 18.731V9.04346H1.875V11.231C1.875 11.4796 1.77623 11.7181 1.60041 11.8939C1.4246 12.0697 1.18614 12.1685 0.9375 12.1685C0.68886 12.1685 0.450403 12.0697 0.274587 11.8939C0.098772 11.7181 0 11.4796 0 11.231L0 3.10596ZM8.125 7.16846H18.125V3.10596C18.125 3.02308 18.0921 2.94359 18.0335 2.88499C17.9749 2.82638 17.8954 2.79346 17.8125 2.79346H8.125V7.16846ZM1.875 7.16846H6.25V2.79346H2.1875C2.10462 2.79346 2.02513 2.82638 1.96653 2.88499C1.90792 2.94359 1.875 3.02308 1.875 3.10596V7.16846Z" fill="#3D70DF"/>
<path d="M1.875 18.0896C1.87499 17.719 1.94824 17.3521 2.09051 17.0099C2.23279 16.6676 2.4413 16.3569 2.70406 16.0956C2.96681 15.8342 3.27863 15.6274 3.6216 15.4869C3.96456 15.3464 4.3319 15.2752 4.7025 15.2771L5 15.2809V17.7034C5 17.9759 5.325 18.1171 5.525 17.9321L9.12875 14.5859C9.16017 14.5566 9.18523 14.5212 9.20236 14.4819C9.2195 14.4425 9.22834 14.4001 9.22834 14.3571C9.22834 14.3142 9.2195 14.2717 9.20236 14.2324C9.18523 14.193 9.16017 14.1576 9.12875 14.1284L5.525 10.7809C5.48044 10.7396 5.4248 10.7121 5.36488 10.7019C5.30497 10.6917 5.24339 10.6992 5.18767 10.7235C5.13196 10.7478 5.08453 10.7878 5.0512 10.8386C5.01787 10.8894 5.00007 10.9489 5 11.0096V13.4059L4.7125 13.4046C4.09493 13.4013 3.4828 13.5201 2.91128 13.7541C2.33976 13.9881 1.82012 14.3328 1.38221 14.7683C0.944297 15.2037 0.596755 15.7214 0.359551 16.2916C0.122347 16.8618 0.000155903 17.4733 0 18.0909L0 19.3559C0 19.6045 0.098772 19.843 0.274587 20.0188C0.450403 20.1946 0.68886 20.2934 0.9375 20.2934C1.18614 20.2934 1.4246 20.1946 1.60041 20.0188C1.77623 19.843 1.875 19.6045 1.875 19.3559V18.0896Z" fill="#3D70DF"/>
</g>
<defs>
<clipPath id="clip0_32_13302">
<rect width="20" height="20" fill="white" transform="translate(0 0.918457)"/>
</clipPath>
</defs>
</svg>
