<svg width="22" height="25" viewBox="0 0 22 25" fill="none" xmlns="http://www.w3.org/2000/svg">
<path d="M6.19498 3.36165C6.86679 3.124 7.59353 3.20798 8.2106 3.59505L17.5133 9.43099C18.7779 10.2244 19.2441 12.0468 18.5544 13.5013C18.3145 14.0069 17.953 14.4228 17.5133 14.6986L8.2106 20.5345C6.94599 21.3277 5.36131 20.7917 4.67154 19.3372C4.33507 18.6276 4.26183 17.7915 4.46842 17.0189L5.79361 12.0648L4.46842 7.11068C4.04499 5.52729 4.81839 3.849 6.19498 3.36165ZM7.37759 5.35091C7.17193 5.22201 6.92959 5.19355 6.70572 5.27279C6.27974 5.42374 6.02696 5.91729 6.10611 6.4095L6.13052 6.52279L7.39029 11.2318H11.9606C12.4407 11.2319 12.8297 11.6796 12.8297 12.2318C12.8297 12.7445 12.4944 13.167 12.0622 13.2249L11.9606 13.2318H7.30045L6.13052 17.6068C6.06165 17.8643 6.08572 18.1436 6.19791 18.3802C6.41141 18.8301 6.88229 19.0156 7.2858 18.8285L7.37759 18.7786L16.6803 12.9427C16.8268 12.8508 16.9471 12.7118 17.027 12.5433C17.2405 12.0931 17.1218 11.5372 16.7663 11.2484L16.6803 11.1868L7.37759 5.35091Z" fill="white"/>
</svg>
