<svg width="19" height="18" viewBox="0 0 19 18" fill="none" xmlns="http://www.w3.org/2000/svg">
<path fill-rule="evenodd" clip-rule="evenodd" d="M2.58325 15.75V1.5H1.08325V16.5C1.08325 16.9142 1.41904 17.25 1.83325 17.25H16.8333V15.75H2.58325Z" fill="white"/>
<path fill-rule="evenodd" clip-rule="evenodd" d="M17.3636 5.03039L12.8636 9.53039C12.5707 9.82328 12.0959 9.82328 11.803 9.53039L10.8333 8.56072L7.61364 11.7804C7.32075 12.0733 6.84587 12.0733 6.55298 11.7804L4.83331 10.0607L2.36364 12.5304L1.30298 11.4697L4.30298 8.46973C4.59587 8.17683 5.07075 8.17683 5.36364 8.46973L7.08331 10.1894L10.303 6.96973C10.5959 6.67683 11.0707 6.67683 11.3636 6.96973L12.3333 7.9394L16.303 3.96973L17.3636 5.03039Z" fill="white"/>
</svg>
