<svg width="24" height="25" viewBox="0 0 24 25" fill="none" xmlns="http://www.w3.org/2000/svg">
<path d="M12 1.91846C18.0751 1.91846 23 6.84332 23 12.9185C23 18.9936 18.0751 23.9185 12 23.9185C5.92487 23.9185 1 18.9936 1 12.9185C1 6.84332 5.92487 1.91846 12 1.91846ZM12 3.91846C7.02944 3.91846 3 7.94789 3 12.9185C3 17.889 7.02944 21.9185 12 21.9185C16.9706 21.9185 21 17.889 21 12.9185C21 7.94789 16.9706 3.91846 12 3.91846ZM12 11.9185C12.5128 11.9185 12.9354 12.3049 12.9932 12.8022L13 12.9185V16.9185C13 17.4707 12.5523 17.9185 12 17.9185C11.4872 17.9185 11.0646 17.532 11.0068 17.0347L11 16.9185V12.9185C11 12.3662 11.4477 11.9185 12 11.9185ZM12.0098 7.91846C12.5621 7.91846 13.0098 8.36617 13.0098 8.91846C13.0098 9.43118 12.6241 9.8537 12.127 9.91162L12 9.91846C11.4477 9.91846 11 9.47074 11 8.91846C11 8.40562 11.3865 7.98306 11.8838 7.92529L12.0098 7.91846Z" fill="#3D70DF"/>
</svg>
