<svg width="18" height="18" viewBox="0 0 18 18" fill="none" xmlns="http://www.w3.org/2000/svg">
<g clip-path="url(#clip0_20_8881)">
<path fill-rule="evenodd" clip-rule="evenodd" d="M9 2.25C7.13604 2.25 5.625 3.76104 5.625 5.625C5.625 7.48896 7.13604 9 9 9C10.864 9 12.375 7.48896 12.375 5.625C12.375 3.76104 10.864 2.25 9 2.25ZM4.125 5.625C4.125 2.93261 6.30761 0.75 9 0.75C11.6924 0.75 13.875 2.93261 13.875 5.625C13.875 8.31739 11.6924 10.5 9 10.5C6.30761 10.5 4.125 8.31739 4.125 5.625Z" fill="white"/>
<path fill-rule="evenodd" clip-rule="evenodd" d="M8.99992 10.5C5.72619 10.5 3.06842 12.5568 2.40982 15.1961C2.3765 15.3296 2.40986 15.4459 2.50534 15.549C2.60987 15.6618 2.78785 15.75 2.99993 15.75H14.9999C15.212 15.75 15.39 15.6618 15.4945 15.549C15.59 15.4459 15.6234 15.3296 15.59 15.1961C14.9314 12.5568 12.2737 10.5 8.99992 10.5ZM0.954448 14.8329C1.79969 11.4457 5.12356 9 8.99992 9C12.8763 9 16.2002 11.4457 17.0454 14.8329C17.396 16.238 16.1752 17.25 14.9999 17.25H2.99993C1.82463 17.25 0.603828 16.238 0.954448 14.8329Z" fill="white"/>
</g>
<defs>
<clipPath id="clip0_20_8881">
<rect width="18" height="18" fill="white"/>
</clipPath>
</defs>
</svg>
