<svg width="24" height="25" viewBox="0 0 24 25" fill="none" xmlns="http://www.w3.org/2000/svg">
<g clip-path="url(#clip0_32_13320)">
<path d="M0.755859 17.4185H16.7139C17.0735 17.4191 17.4214 17.2905 17.6942 17.0561C17.9669 16.8217 18.1464 16.4971 18.1999 16.1415L20.0639 3.69546C20.1172 3.34032 20.2963 3.01613 20.5684 2.78179C20.8406 2.54746 21.1877 2.41854 21.5469 2.41846H23.2559" stroke="#3D70DF" stroke-width="1.5" stroke-linecap="round" stroke-linejoin="round"/>
<path d="M8.25586 13.6685V9.16846C8.25586 8.41846 7.50586 8.41846 7.50586 8.41846H3.00586C2.25586 8.41846 2.25586 9.16846 2.25586 9.16846V13.6685C2.25586 14.4185 3.00586 14.4185 3.00586 14.4185H7.50586C8.25586 14.4185 8.25586 13.6685 8.25586 13.6685ZM8.25586 13.6685C8.25586 14.4185 9.00586 14.4185 9.00586 14.4185H15.0059C15.7559 14.4185 15.7559 13.6685 15.7559 13.6685V6.16846C15.7559 5.41846 15.0059 5.41846 15.0059 5.41846H9.00586C8.25586 5.41846 8.25586 6.16846 8.25586 6.16846V13.6685ZM2.25586 21.5435C2.25586 22.0407 2.4534 22.5177 2.80503 22.8693C3.15666 23.2209 3.63358 23.4185 4.13086 23.4185C4.62814 23.4185 5.10505 23.2209 5.45668 22.8693C5.80832 22.5177 6.00586 22.0407 6.00586 21.5435C6.00586 21.0462 5.80832 20.5693 5.45668 20.2176C5.10505 19.866 4.62814 19.6685 4.13086 19.6685C3.63358 19.6685 3.15666 19.866 2.80503 20.2176C2.4534 20.5693 2.25586 21.0462 2.25586 21.5435ZM12.7559 21.5435C12.7559 22.0407 12.9534 22.5177 13.305 22.8693C13.6567 23.2209 14.1336 23.4185 14.6309 23.4185C15.1281 23.4185 15.6051 23.2209 15.9567 22.8693C16.3083 22.5177 16.5059 22.0407 16.5059 21.5435C16.5059 21.0462 16.3083 20.5693 15.9567 20.2176C15.6051 19.866 15.1281 19.6685 14.6309 19.6685C14.1336 19.6685 13.6567 19.866 13.305 20.2176C12.9534 20.5693 12.7559 21.0462 12.7559 21.5435Z" stroke="#3D70DF" stroke-width="1.5" stroke-linecap="round" stroke-linejoin="round"/>
</g>
<defs>
<clipPath id="clip0_32_13320">
<rect width="24" height="24" fill="white" transform="translate(0 0.918457)"/>
</clipPath>
</defs>
</svg>
